<svg xmlns="http://www.w3.org/2000/svg" xmlns:xlink="http://www.w3.org/1999/xlink" width="388" height="364" viewBox="0 0 388 364"><defs><clipPath id="b"><rect width="388" height="364"/></clipPath></defs><g id="a" clip-path="url(#b)"><rect width="388" height="364" fill="#77236e"/><g transform="translate(27.009 -24.183)"><path d="M70.81,322.9v10.956l10.8-10.8Z" transform="translate(-21.311 -150.342)" fill="#651a5d"/><path d="M30,382.1H40.989V371.14Z" transform="translate(0 -175.533)" fill="#651a5d"/><path d="M55.97,370.39V382.8H72.33l11.023-12.112Z" transform="translate(-13.562 -175.141)" fill="#651a5d"/><path d="M105.8,376.33l-9.394,9.393h18.806Z" transform="translate(-34.679 -178.243)" fill="#651a5d"/><path d="M118.17,371.14h27.01v11.873H129.843Z" transform="translate(-46.043 -175.533)" fill="#651a5d"/><path d="M83.353,308.97v27.105H55.97Z" transform="translate(-13.562 -143.068)" fill="#651a5d"/><path d="M118.17,308.97v27.105h27.5Z" transform="translate(-46.043 -143.068)" fill="#651a5d"/><path d="M126.46,310.29h12.064V321.8Z" transform="translate(-50.372 -143.757)" fill="#651a5d"/><path d="M274.967,55.646,288.876,45.34H261.67Z" transform="translate(-126.232 -5.4)" fill="#651a5d"/><path d="M227.239,35l-.129,21.176H255.5Z" transform="translate(-102.931 0)" fill="#651a5d"/><path d="M191.76,84.48l19.5,19.5L230.978,84.26Z" transform="translate(-84.471 -25.724)" fill="#651a5d"/><path d="M191.76,97.33v28h27.655Z" transform="translate(-84.471 -32.549)" fill="#651a5d"/><path d="M257.429,90.65,237.4,110.684l19.9,19.9Z" transform="translate(-108.305 -29.06)" fill="#651a5d"/><path d="M284.51,117.36v39.308l19.8-19.8Z" transform="translate(-132.905 -43.009)" fill="#651a5d"/><path d="M287.48,111.43h39.71L307.27,131.345Z" transform="translate(-134.456 -39.912)" fill="#651a5d"/><path d="M353.141,115.862l-20,20,39.246.363S352.467,115.174,353.141,115.862Z" transform="translate(-158.3 -42.218)" fill="#651a5d"/><path d="M334.23,163.344v17.325l17.349-17.349Z" transform="translate(-158.869 -67.009)" fill="#651a5d"/><path d="M299.909,161.89v27.827H271.9Z" transform="translate(-126.32 -66.262)" fill="#651a5d"/><path d="M265.22,165.6v14.874l7.449-7.444Z" transform="translate(-122.832 -68.2)" fill="#651a5d"/><path d="M232.4,166.34v26.986H205.76Z" transform="translate(-91.782 -68.586)" fill="#651a5d"/><path d="M199.34,161.89v27.827L227.157,161.9Z" transform="translate(-88.43 -66.262)" fill="#651a5d"/><path d="M178.223,163.32V177.9H162.69Z" transform="translate(-69.291 -67.009)" fill="#651a5d"/><path d="M178.683,213.348,163.57,198.24h15.113Z" transform="translate(-69.751 -85.244)" fill="#651a5d"/><path d="M205.76,227.99V254.6l26.628-26.623Z" transform="translate(-91.782 -100.774)" fill="#651a5d"/><path d="M271.9,227.9v26.623l26.7-26.7Z" transform="translate(-126.32 -100.691)" fill="#651a5d"/><path d="M235.44,233.86v26.685H208.87Z" transform="translate(-93.406 -103.845)" fill="#651a5d"/><path d="M239.25,293.866V304.7l10.918-10.918Z" transform="translate(-109.271 -135.135)" fill="#651a5d"/><path d="M278.362,255.84V283.1H252.14Z" transform="translate(-116.002 -115.323)" fill="#651a5d"/><path d="M393.59,349.62V359.9h10.875Z" transform="translate(-189.867 -164.295)" fill="#651a5d"/><path d="M312.4,255.84V283.1h26.914Z" transform="translate(-147.47 -115.323)" fill="#651a5d"/><path d="M315.68,253.15h27.029v27.3Z" transform="translate(-149.182 -113.918)" fill="#651a5d"/><path d="M376.6,289.71v11.08h10.684Z" transform="translate(-180.995 -133.01)" fill="#651a5d"/><path d="M359.938,316.63v25.725H333.52Z" transform="translate(-158.499 -147.068)" fill="#651a5d"/><path d="M349.883,317.71,323.47,344.123V317.71Z" transform="translate(-153.25 -147.632)" fill="#651a5d"/><path d="M288.8,316.63v26.929l-26.7-26.7Z" transform="translate(-121.203 -147.068)" fill="#651a5d"/><path d="M252.97,316.63v26.045h26.714Z" transform="translate(-116.435 -147.068)" fill="#651a5d"/><path d="M217.562,316.63v26.045H190.28Z" transform="translate(-83.698 -147.068)" fill="#651a5d"/><path d="M291.19,377.81v22.614h23Z" transform="translate(-136.394 -179.016)" fill="#651a5d"/><path d="M302.32,380.04h22.629v22.633Z" transform="translate(-142.206 -180.18)" fill="#651a5d"/><path d="M355.47,377.81v22.614h23.178Z" transform="translate(-169.961 -179.016)" fill="#651a5d"/><path d="M366.88,379.3h22.691v22.294Z" transform="translate(-175.919 -179.794)" fill="#651a5d"/><path d="M419.46,377.81v23.006l18.486.043" transform="translate(-203.377 -179.016)" fill="#651a5d"/><path d="M295.64,429.75h23.4v23.522Z" transform="translate(-138.718 -206.139)" fill="#651a5d"/><path d="M235.54,486.15h23.044v23.383Z" transform="translate(-107.333 -235.591)" fill="#651a5d"/><path d="M288.38,485.539V508.33l23.35-23.35Z" transform="translate(-134.926 -234.98)" fill="#651a5d"/><path d="M319.043,487.67v22.657h-23.4Z" transform="translate(-138.718 -236.385)" fill="#651a5d"/><path d="M359.46,431.24h22.332v22.81Z" transform="translate(-172.044 -206.917)" fill="#651a5d"/><path d="M412.42,431.24v21.721h15.247v-7.024Z" transform="translate(-199.7 -206.917)" fill="#651a5d"/><path d="M420.7,429.75h11.29v11.572Z" transform="translate(-204.024 -206.139)" fill="#651a5d"/><path d="M351.3,433.46v47.966l48.568-.1" transform="translate(-167.783 -208.076)" fill="#651a5d"/><path d="M412.42,484.98h15.247v15.337Z" transform="translate(-199.7 -234.98)" fill="#651a5d"/><path d="M240.7,541.8v37.956H202.65Z" transform="translate(-90.158 -264.652)" fill="#651a5d"/><path d="M288.22,540.127v23.4L311.8,539.95Z" transform="translate(-134.843 -263.686)" fill="#651a5d"/><path d="M296.39,564.844h23.044V541.8Z" transform="translate(-139.109 -264.652)" fill="#651a5d"/><path d="M288.22,598.35v23.044L311.8,597.81Z" transform="translate(-134.843 -293.9)" fill="#651a5d"/><path d="M436.86,539.2v33.1l23.858-.09" transform="translate(-212.463 -263.825)" fill="#651a5d"/><path d="M360.94,538.09h32.71v32.619Z" transform="translate(-172.817 -262.714)" fill="#651a5d"/><path d="M350.09,539.95v32.208h32.839Z" transform="translate(-167.151 -263.686)" fill="#651a5d"/><path d="M438.85,614.52l15.958,19.853V614.52Z" transform="translate(-213.502 -302.626)" fill="#651a5d"/><path d="M191.39,695.237l22.867-31.377v31.377Z" transform="translate(-84.278 -328.392)" fill="#651a5d"/><path d="M269.1,659.842l-24.287-.062.239,25.529" transform="translate(-112.174 -326.261)" fill="#651a5d"/><path d="M318.782,612.29,291.07,640h26.814Z" transform="translate(-136.331 -301.462)" fill="#651a5d"/><path d="M354.26,613.03v27.263h27.392Z" transform="translate(-169.329 -301.848)" fill="#651a5d"/><path d="M396.555,646.357l-32.6-33.326h32.6" transform="translate(-174.394 -301.848)" fill="#651a5d"/><path d="M459.415,652.049H439.208l-.358-28.119" transform="translate(-213.502 -307.54)" fill="#651a5d"/><path d="M189.937,731.99v12.3H174.69Z" transform="translate(-75.557 -363.969)" fill="#651a5d"/><path d="M210.31,733.345v7.917l8.017-8.022Z" transform="translate(-94.158 -364.622)" fill="#651a5d"/><path d="M291.052,675.389h57.092l-20.627,20.627S290.144,674.482,291.052,675.389Z" transform="translate(-136.313 -334.398)" fill="#651a5d"/><path d="M264.716,679.07v24.11H243.21Z" transform="translate(-111.339 -336.334)" fill="#651a5d"/><path d="M292.68,682.63v12.838h19.389Z" transform="translate(-137.172 -338.193)" fill="#651a5d"/><path d="M406.484,676.85l-9.924,9.929h19.255Z" transform="translate(-191.418 -335.175)" fill="#651a5d"/><path d="M514.068,620.46H477.65v22.566Z" transform="translate(-233.157 -308.566)" fill="#651a5d"/><path d="M494.5,503.21h45.636L494.5,558.291Z" transform="translate(-242.563 -249.818)" fill="#651a5d"/><path d="M455.55,516.887l15.423,26.6V492.08Z" transform="translate(-222.223 -238.688)" fill="#651a5d"/><path d="M450.73,445.34v31.554l16.494-16.5Z" transform="translate(-219.706 -214.28)" fill="#651a5d"/><path d="M478.92,672.4l5.783,7.326,7.077-7.077Z" transform="translate(-234.427 -335.218)" fill="#651a5d"/><path d="M500.43,645.6l25.533-16.7-.353,16.88Z" transform="translate(-245.659 -312.262)" fill="#651a5d"/></g></g></svg>