<svg xmlns="http://www.w3.org/2000/svg" xmlns:xlink="http://www.w3.org/1999/xlink" width="388" height="364" viewBox="0 0 388 364"><defs><clipPath id="b"><rect width="388" height="364"/></clipPath></defs><g id="a" clip-path="url(#b)"><rect width="388" height="364" fill="#512f70"/><g transform="translate(28.753 -27.544)"><path d="M70.81,322.9v11.075l10.921-10.921Z" transform="translate(-21.098 -148.841)" fill="#684687"/><path d="M30,382.216H41.109V371.14Z" transform="translate(0 -173.78)" fill="#684687"/><path d="M55.97,370.39v12.544H72.508l11.143-12.244Z" transform="translate(-13.426 -173.392)" fill="#684687"/><path d="M105.906,376.33l-9.5,9.5h19.011Z" transform="translate(-34.333 -176.463)" fill="#684687"/><path d="M118.17,371.14h27.3v12h-15.5Z" transform="translate(-45.583 -173.78)" fill="#684687"/><path d="M83.651,308.97v27.4H55.97Z" transform="translate(-13.426 -141.639)" fill="#684687"/><path d="M118.17,308.97v27.4h27.8Z" transform="translate(-45.583 -141.639)" fill="#684687"/><path d="M126.46,310.29h12.2v11.631Z" transform="translate(-49.869 -142.321)" fill="#684687"/><path d="M275.112,55.759,289.173,45.34h-27.5Z" transform="translate(-125.081 -5.346)" fill="#684687"/><path d="M227.24,35l-.13,21.407h28.7Z" transform="translate(-101.903 0)" fill="#684687"/><path d="M191.76,84.482l19.712,19.712L231.406,84.26Z" transform="translate(-83.628 -25.467)" fill="#684687"/><path d="M191.76,97.33v28.309h27.957Z" transform="translate(-83.628 -32.224)" fill="#684687"/><path d="M257.648,90.65,237.4,110.9l20.117,20.118Z" transform="translate(-107.223 -28.77)" fill="#684687"/><path d="M284.51,117.36V157.1l20.021-20.021Z" transform="translate(-131.578 -42.579)" fill="#684687"/><path d="M287.48,111.43h40.143l-20.137,20.132Z" transform="translate(-133.114 -39.513)" fill="#684687"/><path d="M353.359,115.862,333.14,136.081l39.675.367S352.678,115.167,353.359,115.862Z" transform="translate(-156.72 -41.796)" fill="#684687"/><path d="M334.23,163.344v17.514l17.538-17.538Z" transform="translate(-157.283 -66.34)" fill="#684687"/><path d="M300.214,161.89v28.131H271.9Z" transform="translate(-125.059 -65.6)" fill="#684687"/><path d="M265.22,165.6v15.036l7.53-7.525Z" transform="translate(-121.606 -67.519)" fill="#684687"/><path d="M232.688,166.34v27.281H205.76Z" transform="translate(-90.866 -67.901)" fill="#684687"/><path d="M199.34,161.89v28.131L227.461,161.9Z" transform="translate(-87.547 -65.6)" fill="#684687"/><path d="M178.393,163.32v14.737h-15.7Z" transform="translate(-68.599 -66.34)" fill="#684687"/><path d="M178.848,213.513,163.57,198.24h15.278Z" transform="translate(-69.054 -84.393)" fill="#684687"/><path d="M205.76,227.99v26.9l26.918-26.914Z" transform="translate(-90.866 -99.768)" fill="#684687"/><path d="M271.9,227.9v26.914l26.991-26.991Z" transform="translate(-125.059 -99.685)" fill="#684687"/><path d="M235.73,233.86v26.976H208.87Z" transform="translate(-92.473 -102.808)" fill="#684687"/><path d="M239.25,293.867v10.95l11.037-11.037Z" transform="translate(-108.18 -133.786)" fill="#684687"/><path d="M278.648,255.84V283.4H252.14Z" transform="translate(-114.844 -114.172)" fill="#684687"/><path d="M393.59,349.62v10.395h10.993Z" transform="translate(-187.971 -162.654)" fill="#684687"/><path d="M312.4,255.84V283.4h27.208Z" transform="translate(-145.997 -114.172)" fill="#684687"/><path d="M315.68,253.15H343v27.6Z" transform="translate(-147.693 -112.781)" fill="#684687"/><path d="M376.6,289.71v11.2h10.8Z" transform="translate(-179.188 -131.682)" fill="#684687"/><path d="M360.226,316.63v26.006H333.52Z" transform="translate(-156.916 -145.599)" fill="#684687"/><path d="M350.171,317.71l-26.7,26.7v-26.7Z" transform="translate(-151.72 -146.157)" fill="#684687"/><path d="M289.1,316.63v27.223l-27-27Z" transform="translate(-119.993 -145.599)" fill="#684687"/><path d="M252.97,316.63v26.329h27.005Z" transform="translate(-115.273 -145.599)" fill="#684687"/><path d="M217.86,316.63v26.329H190.28Z" transform="translate(-82.863 -145.599)" fill="#684687"/><path d="M291.19,377.81v22.861h23.247Z" transform="translate(-135.032 -177.228)" fill="#684687"/><path d="M302.32,380.04H325.2v22.88Z" transform="translate(-140.786 -178.381)" fill="#684687"/><path d="M355.47,377.81v22.861H378.9Z" transform="translate(-168.264 -177.228)" fill="#684687"/><path d="M366.88,379.3h22.938v22.537Z" transform="translate(-174.163 -177.999)" fill="#684687"/><path d="M419.46,377.81v23.257l18.688.043" transform="translate(-201.346 -177.228)" fill="#684687"/><path d="M295.64,429.75H319.3v23.779Z" transform="translate(-137.332 -204.081)" fill="#684687"/><path d="M235.54,486.15h23.3v23.639Z" transform="translate(-106.262 -233.239)" fill="#684687"/><path d="M288.38,485.545v23.04l23.6-23.6Z" transform="translate(-133.579 -232.634)" fill="#684687"/><path d="M319.3,487.67v22.9H295.64Z" transform="translate(-137.332 -234.025)" fill="#684687"/><path d="M359.46,431.24h22.576V454.3Z" transform="translate(-170.327 -204.851)" fill="#684687"/><path d="M412.42,431.24V453.2h15.413v-7.1Z" transform="translate(-197.706 -204.851)" fill="#684687"/><path d="M420.7,429.75h11.414v11.7Z" transform="translate(-201.987 -204.081)" fill="#684687"/><path d="M351.3,433.46v48.49l49.1-.1" transform="translate(-166.108 -205.999)" fill="#684687"/><path d="M412.42,484.98h15.413v15.5Z" transform="translate(-197.706 -232.634)" fill="#684687"/><path d="M241.117,541.8v38.37H202.65Z" transform="translate(-89.258 -262.009)" fill="#684687"/><path d="M288.22,540.129v23.653l23.837-23.832Z" transform="translate(-133.496 -261.053)" fill="#684687"/><path d="M296.39,565.1h23.3V541.8Z" transform="translate(-137.72 -262.009)" fill="#684687"/><path d="M288.22,598.356v23.3l23.841-23.841Z" transform="translate(-133.496 -290.966)" fill="#684687"/><path d="M436.86,539.2v33.459l24.118-.09" transform="translate(-210.341 -261.201)" fill="#684687"/><path d="M360.94,538.09h33.067v32.975Z" transform="translate(-171.092 -260.091)" fill="#684687"/><path d="M350.09,539.95v32.56h33.2Z" transform="translate(-165.482 -261.053)" fill="#684687"/><path d="M438.85,614.52l16.133,20.069V614.52Z" transform="translate(-211.37 -299.604)" fill="#684687"/><path d="M191.39,695.58l23.117-31.72v31.72Z" transform="translate(-83.437 -325.112)" fill="#684687"/><path d="M269.362,659.843l-24.552-.063.242,25.807" transform="translate(-111.054 -323.003)" fill="#684687"/><path d="M319.085,612.29,291.07,640.3h27.107Z" transform="translate(-134.97 -298.451)" fill="#684687"/><path d="M354.26,613.03v27.561h27.691Z" transform="translate(-167.638 -298.834)" fill="#684687"/><path d="M396.911,646.72,363.96,613.03h32.951" transform="translate(-172.653 -298.834)" fill="#684687"/><path d="M459.639,652.355H439.212l-.362-28.426" transform="translate(-211.37 -304.469)" fill="#684687"/><path d="M190.1,731.99v12.433H174.69Z" transform="translate(-74.803 -360.335)" fill="#684687"/><path d="M210.31,733.346v8l8.1-8.11Z" transform="translate(-93.218 -360.981)" fill="#684687"/><path d="M291.052,675.39h57.715l-20.852,20.852S290.135,674.472,291.052,675.39Z" transform="translate(-134.952 -331.059)" fill="#684687"/><path d="M264.95,679.07v24.373H243.21Z" transform="translate(-110.227 -332.976)" fill="#684687"/><path d="M292.68,682.63v12.978h19.6Z" transform="translate(-135.802 -334.816)" fill="#684687"/><path d="M406.592,676.85,396.56,686.887h19.465Z" transform="translate(-189.507 -331.828)" fill="#684687"/><path d="M514.465,620.46H477.65v22.813Z" transform="translate(-230.816 -305.545)" fill="#684687"/><path d="M494.5,503.21h46.134L494.5,558.892Z" transform="translate(-240.141 -247.435)" fill="#684687"/><path d="M455.55,517.158l15.592,26.894V492.08Z" transform="translate(-220.004 -236.304)" fill="#684687"/><path d="M450.73,445.34v31.9L467.4,460.56Z" transform="translate(-217.512 -212.141)" fill="#684687"/><path d="M478.92,672.4l5.846,7.406,7.154-7.154Z" transform="translate(-232.086 -331.92)" fill="#684687"/><path d="M500.43,645.786,526.242,628.9l-.357,17.065Z" transform="translate(-243.206 -309.188)" fill="#684687"/></g></g></svg>