<svg xmlns="http://www.w3.org/2000/svg" xmlns:xlink="http://www.w3.org/1999/xlink" width="163" height="67" viewBox="0 0 163 67"><defs><clipPath id="b"><rect width="163" height="67"/></clipPath></defs><g id="a" clip-path="url(#b)"><g transform="translate(1 1)"><g transform="translate(7.582 30.548)"><path d="M8.6,3.661h1.5a4.193,4.193,0,0,0-.537-1.586A3.9,3.9,0,0,0,8.538.931a4.5,4.5,0,0,0-1.4-.694A5.792,5.792,0,0,0,5.46,0a5.392,5.392,0,0,0-2.3.466,4.745,4.745,0,0,0-1.673,1.27A5.571,5.571,0,0,0,.473,3.622,7.518,7.518,0,0,0,.126,5.934a7.945,7.945,0,0,0,.324,2.3A5.322,5.322,0,0,0,1.42,10.1a4.494,4.494,0,0,0,1.625,1.239,5.432,5.432,0,0,0,2.288.45,4.749,4.749,0,0,0,3.409-1.184A5.118,5.118,0,0,0,10.21,7.291h-1.5a4.3,4.3,0,0,1-.284,1.294,3.123,3.123,0,0,1-.655,1.034,2.983,2.983,0,0,1-.994.679,3.345,3.345,0,0,1-1.318.245,3.709,3.709,0,0,1-1.736-.379A3.39,3.39,0,0,1,2.533,9.145a4.36,4.36,0,0,1-.686-1.5,7.3,7.3,0,0,1-.221-1.823,6.528,6.528,0,0,1,.221-1.7,4.393,4.393,0,0,1,.686-1.46A3.411,3.411,0,0,1,3.716,1.641a3.661,3.661,0,0,1,1.728-.379,3.483,3.483,0,0,1,2.044.6A2.787,2.787,0,0,1,8.6,3.661Z" transform="translate(-0.016)" fill="#fff"/><path d="M14.416,7.913a4.059,4.059,0,0,1,.2-1.318,2.844,2.844,0,0,1,.544-.971,2.319,2.319,0,0,1,.813-.6,2.474,2.474,0,0,1,1.973,0,2.319,2.319,0,0,1,.813.6A2.844,2.844,0,0,1,19.3,6.6a4.059,4.059,0,0,1,.2,1.318,4.059,4.059,0,0,1-.2,1.318,2.757,2.757,0,0,1-.544.963,2.363,2.363,0,0,1-.813.592,2.474,2.474,0,0,1-1.973,0,2.363,2.363,0,0,1-.813-.592,2.757,2.757,0,0,1-.544-.963A4.059,4.059,0,0,1,14.416,7.913Zm-1.42,0a5.36,5.36,0,0,0,.253,1.673,3.818,3.818,0,0,0,.758,1.349,3.485,3.485,0,0,0,1.247.9,4.228,4.228,0,0,0,1.7.324,4.214,4.214,0,0,0,1.712-.324,3.5,3.5,0,0,0,1.239-.9,3.818,3.818,0,0,0,.758-1.349,5.36,5.36,0,0,0,.253-1.673,5.434,5.434,0,0,0-.253-1.681,3.808,3.808,0,0,0-.758-1.357,3.587,3.587,0,0,0-1.239-.907,4.569,4.569,0,0,0-3.417,0,3.568,3.568,0,0,0-1.247.907,3.808,3.808,0,0,0-.758,1.357A5.434,5.434,0,0,0,13,7.913Z" transform="translate(-1.602 -0.448)" fill="#fff"/><path d="M23.832,3.825v8.159h1.341V6.9a1.947,1.947,0,0,1,.118-.592,2.271,2.271,0,0,1,1.057-1.255,2,2,0,0,1,1-.237,1.8,1.8,0,0,1,.75.134,1.143,1.143,0,0,1,.466.379,1.54,1.54,0,0,1,.245.576,3.467,3.467,0,0,1,.071.726v5.35h1.341V6.9a2.048,2.048,0,0,1,.568-1.515,2.111,2.111,0,0,1,1.562-.568,1.913,1.913,0,0,1,.8.142,1.182,1.182,0,0,1,.481.387,1.45,1.45,0,0,1,.237.576,3.8,3.8,0,0,1,.063.71v5.35h1.341V6a2.681,2.681,0,0,0-.2-1.081,1.9,1.9,0,0,0-.552-.734,2.308,2.308,0,0,0-.852-.418,4.271,4.271,0,0,0-1.113-.134A3.05,3.05,0,0,0,31.084,4,2.848,2.848,0,0,0,30,5.025a1.768,1.768,0,0,0-.868-1.073,3.18,3.18,0,0,0-4.009,1.073h-.032v-1.2Z" transform="translate(-2.937 -0.448)" fill="#fff"/><path d="M39.186,3.825v8.159h1.341V6.9a1.947,1.947,0,0,1,.118-.592A2.271,2.271,0,0,1,41.7,5.056a2,2,0,0,1,1-.237,1.8,1.8,0,0,1,.75.134,1.143,1.143,0,0,1,.466.379,1.54,1.54,0,0,1,.245.576,3.467,3.467,0,0,1,.071.726v5.35h1.341V6.9a2.048,2.048,0,0,1,.568-1.515,2.111,2.111,0,0,1,1.562-.568,1.913,1.913,0,0,1,.8.142,1.182,1.182,0,0,1,.481.387,1.45,1.45,0,0,1,.237.576,3.8,3.8,0,0,1,.063.71v5.35h1.341V6a2.681,2.681,0,0,0-.2-1.081,1.9,1.9,0,0,0-.552-.734,2.308,2.308,0,0,0-.852-.418,4.271,4.271,0,0,0-1.113-.134A3.05,3.05,0,0,0,46.438,4a2.848,2.848,0,0,0-1.081,1.026,1.768,1.768,0,0,0-.868-1.073A3.18,3.18,0,0,0,40.48,5.025h-.032v-1.2Z" transform="translate(-4.83 -0.448)" fill="#fff"/><path d="M55.971,1.947V.306H54.63V1.947ZM54.63,3.415v8.159h1.341V3.415Z" transform="translate(-6.733 -0.038)" fill="#fff"/><path d="M59.283,9.412H57.942a2.952,2.952,0,0,0,.316,1.286,2.374,2.374,0,0,0,.758.852,3.175,3.175,0,0,0,1.089.466,5.74,5.74,0,0,0,1.294.142,6.629,6.629,0,0,0,1.239-.118,3.364,3.364,0,0,0,1.12-.418,2.4,2.4,0,0,0,.8-.789A2.273,2.273,0,0,0,64.87,9.6a1.924,1.924,0,0,0-.229-.978,2.043,2.043,0,0,0-.6-.655,3.216,3.216,0,0,0-.852-.418,10.072,10.072,0,0,0-.986-.268q-.473-.11-.947-.213a5.463,5.463,0,0,1-.852-.253,1.953,1.953,0,0,1-.623-.379.755.755,0,0,1-.245-.576.8.8,0,0,1,.158-.513,1.128,1.128,0,0,1,.41-.316,2.046,2.046,0,0,1,.56-.166,3.991,3.991,0,0,1,.608-.047,3.046,3.046,0,0,1,.655.071,2.008,2.008,0,0,1,.592.229,1.343,1.343,0,0,1,.442.418,1.358,1.358,0,0,1,.205.655h1.341a3,3,0,0,0-.316-1.239,2.124,2.124,0,0,0-.718-.789,2.957,2.957,0,0,0-1.034-.41,6.442,6.442,0,0,0-1.278-.118,4.506,4.506,0,0,0-1.081.134,3.261,3.261,0,0,0-.978.41,2.258,2.258,0,0,0-.71.718,1.955,1.955,0,0,0-.276,1.057,1.784,1.784,0,0,0,.395,1.231,2.663,2.663,0,0,0,.986.686,6.674,6.674,0,0,0,1.286.379q.694.134,1.286.3a3.357,3.357,0,0,1,.986.434.893.893,0,0,1,.395.789.988.988,0,0,1-.189.623,1.2,1.2,0,0,1-.481.371,2.43,2.43,0,0,1-.639.174,4.911,4.911,0,0,1-.663.047,3.976,3.976,0,0,1-.8-.079,2.236,2.236,0,0,1-.694-.26,1.428,1.428,0,0,1-.5-.489A1.51,1.51,0,0,1,59.283,9.412Z" transform="translate(-7.141 -0.448)" fill="#fff"/><path d="M68.283,9.412H66.942a2.952,2.952,0,0,0,.316,1.286,2.374,2.374,0,0,0,.758.852,3.175,3.175,0,0,0,1.089.466,5.74,5.74,0,0,0,1.294.142,6.629,6.629,0,0,0,1.239-.118,3.364,3.364,0,0,0,1.12-.418,2.4,2.4,0,0,0,.8-.789A2.273,2.273,0,0,0,73.87,9.6a1.924,1.924,0,0,0-.229-.978,2.043,2.043,0,0,0-.6-.655,3.216,3.216,0,0,0-.852-.418,10.073,10.073,0,0,0-.986-.268q-.473-.11-.947-.213a5.463,5.463,0,0,1-.852-.253,1.953,1.953,0,0,1-.623-.379.755.755,0,0,1-.245-.576.8.8,0,0,1,.158-.513,1.128,1.128,0,0,1,.41-.316,2.046,2.046,0,0,1,.56-.166,3.992,3.992,0,0,1,.608-.047,3.046,3.046,0,0,1,.655.071,2.008,2.008,0,0,1,.592.229,1.343,1.343,0,0,1,.442.418,1.358,1.358,0,0,1,.205.655h1.341a3,3,0,0,0-.316-1.239,2.124,2.124,0,0,0-.718-.789,2.958,2.958,0,0,0-1.034-.41,6.442,6.442,0,0,0-1.278-.118,4.506,4.506,0,0,0-1.081.134,3.261,3.261,0,0,0-.978.41,2.258,2.258,0,0,0-.71.718,1.955,1.955,0,0,0-.276,1.057,1.784,1.784,0,0,0,.395,1.231,2.663,2.663,0,0,0,.986.686,6.674,6.674,0,0,0,1.286.379q.694.134,1.286.3a3.358,3.358,0,0,1,.986.434.893.893,0,0,1,.395.789.988.988,0,0,1-.189.623,1.2,1.2,0,0,1-.481.371,2.43,2.43,0,0,1-.639.174,4.912,4.912,0,0,1-.663.047,3.976,3.976,0,0,1-.8-.079,2.236,2.236,0,0,1-.694-.26,1.427,1.427,0,0,1-.5-.489A1.51,1.51,0,0,1,68.283,9.412Z" transform="translate(-8.251 -0.448)" fill="#fff"/><path d="M77.967,1.947V.306H76.626V1.947ZM76.626,3.415v8.159h1.341V3.415Z" transform="translate(-9.444 -0.038)" fill="#fff"/><path d="M81.448,7.913a4.059,4.059,0,0,1,.2-1.318,2.844,2.844,0,0,1,.544-.971,2.319,2.319,0,0,1,.813-.6,2.474,2.474,0,0,1,1.973,0,2.319,2.319,0,0,1,.813.6,2.844,2.844,0,0,1,.544.971,4.059,4.059,0,0,1,.2,1.318,4.059,4.059,0,0,1-.2,1.318,2.757,2.757,0,0,1-.544.963,2.363,2.363,0,0,1-.813.592,2.474,2.474,0,0,1-1.973,0,2.363,2.363,0,0,1-.813-.592,2.757,2.757,0,0,1-.544-.963A4.059,4.059,0,0,1,81.448,7.913Zm-1.42,0a5.36,5.36,0,0,0,.253,1.673,3.818,3.818,0,0,0,.758,1.349,3.485,3.485,0,0,0,1.247.9,4.672,4.672,0,0,0,3.417,0,3.5,3.5,0,0,0,1.239-.9A3.819,3.819,0,0,0,87.7,9.586a5.36,5.36,0,0,0,.253-1.673A5.434,5.434,0,0,0,87.7,6.232a3.808,3.808,0,0,0-.758-1.357A3.587,3.587,0,0,0,85.7,3.967a4.569,4.569,0,0,0-3.417,0,3.568,3.568,0,0,0-1.247.907,3.808,3.808,0,0,0-.758,1.357A5.434,5.434,0,0,0,80.028,7.913Z" transform="translate(-9.863 -0.448)" fill="#fff"/><path d="M90.864,3.825v8.159h1.341V7.376a3.305,3.305,0,0,1,.15-1.018,2.312,2.312,0,0,1,.45-.813,2,2,0,0,1,.75-.537A2.734,2.734,0,0,1,94.62,4.82a1.642,1.642,0,0,1,1.215.442,1.621,1.621,0,0,1,.442,1.2v5.524h1.341V6.619a5.049,5.049,0,0,0-.134-1.207,2.286,2.286,0,0,0-.466-.939,2.205,2.205,0,0,0-.868-.615,3.541,3.541,0,0,0-1.341-.221,2.824,2.824,0,0,0-2.651,1.483h-.032V3.825Z" transform="translate(-11.199 -0.448)" fill="#fff"/><path d="M106.792,7.913a4.059,4.059,0,0,1,.2-1.318,2.844,2.844,0,0,1,.544-.971,2.319,2.319,0,0,1,.813-.6,2.474,2.474,0,0,1,1.973,0,2.319,2.319,0,0,1,.813.6,2.844,2.844,0,0,1,.544.971,4.059,4.059,0,0,1,.2,1.318,4.059,4.059,0,0,1-.2,1.318,2.757,2.757,0,0,1-.544.963,2.363,2.363,0,0,1-.813.592,2.474,2.474,0,0,1-1.973,0,2.363,2.363,0,0,1-.813-.592,2.757,2.757,0,0,1-.544-.963A4.059,4.059,0,0,1,106.792,7.913Zm-1.42,0a5.36,5.36,0,0,0,.253,1.673,3.818,3.818,0,0,0,.758,1.349,3.485,3.485,0,0,0,1.247.9,4.672,4.672,0,0,0,3.417,0,3.5,3.5,0,0,0,1.239-.9,3.819,3.819,0,0,0,.758-1.349,5.36,5.36,0,0,0,.252-1.673,5.434,5.434,0,0,0-.252-1.681,3.808,3.808,0,0,0-.758-1.357,3.586,3.586,0,0,0-1.239-.907,4.569,4.569,0,0,0-3.417,0,3.568,3.568,0,0,0-1.247.907,3.808,3.808,0,0,0-.758,1.357A5.434,5.434,0,0,0,105.372,7.913Z" transform="translate(-12.987 -0.448)" fill="#fff"/><path d="M116.208,3.825v8.159h1.341V7.376a3.305,3.305,0,0,1,.15-1.018,2.312,2.312,0,0,1,.45-.813,2,2,0,0,1,.75-.537,2.734,2.734,0,0,1,1.065-.189,1.642,1.642,0,0,1,1.215.442,1.621,1.621,0,0,1,.442,1.2v5.524h1.341V6.619a5.049,5.049,0,0,0-.134-1.207,2.286,2.286,0,0,0-.466-.939,2.205,2.205,0,0,0-.868-.615,3.541,3.541,0,0,0-1.341-.221A2.824,2.824,0,0,0,117.5,5.119h-.032V3.825Z" transform="translate(-14.323 -0.448)" fill="#fff"/><path d="M131.472.306V11.574h1.5V6.761h3.661a1.99,1.99,0,0,1,.884.166,1.479,1.479,0,0,1,.537.442,1.832,1.832,0,0,1,.3.647q.095.371.158.781a5.5,5.5,0,0,1,.095.836q.016.426.032.8a4.865,4.865,0,0,0,.071.671.941.941,0,0,0,.213.473h1.673a1.926,1.926,0,0,1-.355-.655,5.132,5.132,0,0,1-.181-.781,7.266,7.266,0,0,1-.079-.836q-.016-.426-.047-.836a7.252,7.252,0,0,0-.134-.789,2.4,2.4,0,0,0-.268-.686,1.729,1.729,0,0,0-.489-.529,2.007,2.007,0,0,0-.8-.316V6.114a2.4,2.4,0,0,0,1.491-1.057,3.42,3.42,0,0,0,.466-1.8,2.716,2.716,0,0,0-.907-2.162,3.71,3.71,0,0,0-2.517-.789ZM136.1,5.5h-3.125V1.569H136.7a1.946,1.946,0,0,1,1.531.537,2.021,2.021,0,0,1,.473,1.389,2.067,2.067,0,0,1-.213,1,1.686,1.686,0,0,1-.568.615,2.169,2.169,0,0,1-.829.308A6.043,6.043,0,0,1,136.1,5.5Z" transform="translate(-16.204 -0.038)" fill="#fff"/><path d="M150.716,11.953a1.9,1.9,0,0,1-.963.205,1.154,1.154,0,0,1-.829-.292,1.269,1.269,0,0,1-.308-.955,3.209,3.209,0,0,1-1.286.955,4.443,4.443,0,0,1-2.636.166,2.44,2.44,0,0,1-.86-.395,1.893,1.893,0,0,1-.576-.7,2.363,2.363,0,0,1-.213-1.049,2.4,2.4,0,0,1,.237-1.136,2.065,2.065,0,0,1,.623-.718,2.856,2.856,0,0,1,.884-.418q.5-.142,1.018-.237.552-.11,1.049-.166a5.847,5.847,0,0,0,.876-.158,1.46,1.46,0,0,0,.6-.3.732.732,0,0,0,.221-.576,1.339,1.339,0,0,0-.166-.71,1.136,1.136,0,0,0-.426-.41,1.732,1.732,0,0,0-.584-.189,4.41,4.41,0,0,0-.639-.047,2.837,2.837,0,0,0-1.42.324,1.373,1.373,0,0,0-.615,1.223h-1.341a2.9,2.9,0,0,1,.316-1.278,2.393,2.393,0,0,1,.758-.844,3.178,3.178,0,0,1,1.081-.466,5.709,5.709,0,0,1,1.3-.142,7.637,7.637,0,0,1,1.1.079,2.867,2.867,0,0,1,.986.324,1.891,1.891,0,0,1,.71.686,2.2,2.2,0,0,1,.268,1.152v4.2a3.138,3.138,0,0,0,.055.694q.055.221.371.221a1.329,1.329,0,0,0,.41-.079Zm-2.178-4.182a1.67,1.67,0,0,1-.663.276q-.41.087-.86.142t-.907.126a3.336,3.336,0,0,0-.821.229,1.493,1.493,0,0,0-.592.45,1.26,1.26,0,0,0-.229.8,1.091,1.091,0,0,0,.134.56,1.118,1.118,0,0,0,.347.371,1.457,1.457,0,0,0,.5.205,2.758,2.758,0,0,0,.6.063,3.178,3.178,0,0,0,1.136-.181,2.39,2.39,0,0,0,.773-.458,1.805,1.805,0,0,0,.442-.6,1.517,1.517,0,0,0,.142-.608Z" transform="translate(-17.63 -0.448)" fill="#fff"/><path d="M158.693,6.445h1.389A3.225,3.225,0,0,0,159.7,5.19a2.8,2.8,0,0,0-.765-.876,3.171,3.171,0,0,0-1.073-.513,4.931,4.931,0,0,0-1.3-.166,3.949,3.949,0,0,0-1.689.339,3.37,3.37,0,0,0-1.207.931,3.96,3.96,0,0,0-.718,1.389,5.987,5.987,0,0,0-.237,1.712,5.5,5.5,0,0,0,.245,1.681,3.686,3.686,0,0,0,.726,1.318,3.2,3.2,0,0,0,1.2.852,4.25,4.25,0,0,0,1.649.3,3.545,3.545,0,0,0,2.47-.821A3.757,3.757,0,0,0,160.129,9h-1.373a2.352,2.352,0,0,1-.686,1.468,2.2,2.2,0,0,1-1.554.521,2.221,2.221,0,0,1-1.089-.253,2.119,2.119,0,0,1-.742-.671,2.961,2.961,0,0,1-.418-.955,4.537,4.537,0,0,1-.134-1.1,5.55,5.55,0,0,1,.126-1.192,2.988,2.988,0,0,1,.418-1.018,2.166,2.166,0,0,1,.781-.71,2.5,2.5,0,0,1,1.215-.268,2.036,2.036,0,0,1,1.357.426A2.044,2.044,0,0,1,158.693,6.445Z" transform="translate(-18.822 -0.448)" fill="#fff"/><path d="M168.485,7.124H163.8A2.794,2.794,0,0,1,164,6.232a2.379,2.379,0,0,1,.473-.734A2.168,2.168,0,0,1,165.2,5a2.336,2.336,0,0,1,.939-.181,2.3,2.3,0,0,1,.923.181,2.323,2.323,0,0,1,.726.489,2.3,2.3,0,0,1,.489.734A2.744,2.744,0,0,1,168.485,7.124ZM169.78,9.4h-1.326a1.908,1.908,0,0,1-.718,1.2,2.322,2.322,0,0,1-1.4.395,2.779,2.779,0,0,1-1.152-.221,2.258,2.258,0,0,1-.8-.592,2.305,2.305,0,0,1-.458-.852,3.238,3.238,0,0,1-.126-1.018h6.107a6.5,6.5,0,0,0-.134-1.562,4.523,4.523,0,0,0-.6-1.515,3.573,3.573,0,0,0-1.152-1.144,3.347,3.347,0,0,0-1.807-.45,3.71,3.71,0,0,0-1.539.316,3.616,3.616,0,0,0-1.215.884,4.073,4.073,0,0,0-.8,1.341,4.91,4.91,0,0,0-.284,1.7,6.54,6.54,0,0,0,.276,1.72,3.754,3.754,0,0,0,.734,1.357,3.344,3.344,0,0,0,1.207.884,4.191,4.191,0,0,0,1.7.316,3.7,3.7,0,0,0,2.3-.694A3.26,3.26,0,0,0,169.78,9.4Z" transform="translate(-20.013 -0.448)" fill="#fff"/><path d="M7.67,32.953a1.9,1.9,0,0,1-.963.205,1.154,1.154,0,0,1-.829-.292,1.269,1.269,0,0,1-.308-.955,3.209,3.209,0,0,1-1.286.955,4.251,4.251,0,0,1-1.586.292,4.249,4.249,0,0,1-1.049-.126,2.44,2.44,0,0,1-.86-.395,1.894,1.894,0,0,1-.576-.7A2.363,2.363,0,0,1,0,30.885a2.4,2.4,0,0,1,.237-1.136,2.065,2.065,0,0,1,.623-.718,2.856,2.856,0,0,1,.884-.418q.5-.142,1.018-.237.552-.11,1.049-.166a5.847,5.847,0,0,0,.876-.158,1.459,1.459,0,0,0,.6-.3.732.732,0,0,0,.221-.576,1.339,1.339,0,0,0-.166-.71,1.136,1.136,0,0,0-.426-.41,1.733,1.733,0,0,0-.584-.189,4.409,4.409,0,0,0-.639-.047,2.837,2.837,0,0,0-1.42.324,1.373,1.373,0,0,0-.615,1.223H.316a2.9,2.9,0,0,1,.316-1.278,2.393,2.393,0,0,1,.758-.844,3.178,3.178,0,0,1,1.081-.466,5.709,5.709,0,0,1,1.3-.142,7.637,7.637,0,0,1,1.1.079,2.867,2.867,0,0,1,.986.324,1.891,1.891,0,0,1,.71.686,2.2,2.2,0,0,1,.268,1.152v4.2a3.139,3.139,0,0,0,.055.694q.055.221.371.221a1.328,1.328,0,0,0,.41-.079ZM5.492,28.771a1.67,1.67,0,0,1-.663.276q-.41.087-.86.142t-.907.126a3.337,3.337,0,0,0-.821.229,1.493,1.493,0,0,0-.592.45,1.26,1.26,0,0,0-.229.8,1.091,1.091,0,0,0,.134.56,1.118,1.118,0,0,0,.347.371,1.457,1.457,0,0,0,.5.205,2.758,2.758,0,0,0,.6.063,3.178,3.178,0,0,0,1.136-.181,2.39,2.39,0,0,0,.773-.458,1.805,1.805,0,0,0,.442-.6,1.517,1.517,0,0,0,.142-.608Z" transform="translate(0 -3.036)" fill="#fff"/><path d="M10.17,24.825v8.159h1.341V28.376a3.305,3.305,0,0,1,.15-1.018,2.312,2.312,0,0,1,.45-.813,2,2,0,0,1,.75-.537,2.734,2.734,0,0,1,1.065-.189,1.642,1.642,0,0,1,1.215.442,1.621,1.621,0,0,1,.442,1.2v5.524h1.341V27.619a5.049,5.049,0,0,0-.134-1.207,2.286,2.286,0,0,0-.466-.939,2.205,2.205,0,0,0-.868-.615,3.541,3.541,0,0,0-1.341-.221,2.824,2.824,0,0,0-2.651,1.483h-.032V24.825Z" transform="translate(-1.253 -3.036)" fill="#fff"/><path d="M21.094,28.565a5.367,5.367,0,0,1,.126-1.168,3.09,3.09,0,0,1,.41-1.01,2.136,2.136,0,0,1,.758-.71,2.3,2.3,0,0,1,1.152-.268,2.49,2.49,0,0,1,1.184.26,2.3,2.3,0,0,1,.8.686,2.871,2.871,0,0,1,.45.986,4.777,4.777,0,0,1,.008,2.28,2.937,2.937,0,0,1-.434.986,2.214,2.214,0,0,1-1.925.971,2.4,2.4,0,0,1-1.128-.253,2.243,2.243,0,0,1-.789-.679,3,3,0,0,1-.458-.971A4.172,4.172,0,0,1,21.094,28.565Zm6.313,4.009V21.306H26.066v4.2h-.032a2.161,2.161,0,0,0-.544-.608A3.093,3.093,0,0,0,24.8,24.5a3.446,3.446,0,0,0-.726-.213,3.973,3.973,0,0,0-.679-.063,3.714,3.714,0,0,0-1.633.339,3.353,3.353,0,0,0-1.168.915A3.864,3.864,0,0,0,19.9,26.83a5.756,5.756,0,0,0-.229,1.641,5.577,5.577,0,0,0,.237,1.641,4.057,4.057,0,0,0,.7,1.357,3.394,3.394,0,0,0,1.168.931,3.68,3.68,0,0,0,1.649.347,3.977,3.977,0,0,0,1.562-.3,1.974,1.974,0,0,0,1.042-.978h.032v1.1Z" transform="translate(-2.425 -2.626)" fill="#fff"/><path d="M36.108,21.306V32.574h7.828V31.311H37.607v-3.9h5.855V26.151H37.607V22.569h6.281V21.306Z" transform="translate(-4.45 -2.626)" fill="#fff"/><path d="M48.594,24.508V22.062H47.253v2.446H45.864v1.184h1.389v5.192a3.1,3.1,0,0,0,.11.915,1.113,1.113,0,0,0,.339.537,1.31,1.31,0,0,0,.6.26,4.817,4.817,0,0,0,.892.071H50.22V31.484H49.6a4.473,4.473,0,0,1-.513-.024.662.662,0,0,1-.308-.1.39.39,0,0,1-.15-.221,1.464,1.464,0,0,1-.039-.379V25.692H50.22V24.508Z" transform="translate(-5.653 -2.719)" fill="#fff"/><path d="M52.524,21.306V32.574h1.341V27.966a3.305,3.305,0,0,1,.15-1.018,2.312,2.312,0,0,1,.45-.813,2,2,0,0,1,.75-.537,2.734,2.734,0,0,1,1.065-.189,1.642,1.642,0,0,1,1.215.442,1.621,1.621,0,0,1,.442,1.2v5.524h1.341V27.208A5.049,5.049,0,0,0,59.144,26a2.286,2.286,0,0,0-.466-.939,2.205,2.205,0,0,0-.868-.615,3.541,3.541,0,0,0-1.341-.221,3.746,3.746,0,0,0-.75.079,3.315,3.315,0,0,0-.742.245,2.511,2.511,0,0,0-.639.426,1.785,1.785,0,0,0-.442.639h-.032V21.306Z" transform="translate(-6.474 -2.626)" fill="#fff"/><path d="M62.532,24.825v8.159h1.341V28.376a3.305,3.305,0,0,1,.15-1.018,2.312,2.312,0,0,1,.45-.813,2,2,0,0,1,.75-.537,2.734,2.734,0,0,1,1.065-.189,1.642,1.642,0,0,1,1.215.442,1.621,1.621,0,0,1,.442,1.2v5.524h1.341V27.619a5.049,5.049,0,0,0-.134-1.207,2.286,2.286,0,0,0-.466-.939,2.205,2.205,0,0,0-.868-.615,3.541,3.541,0,0,0-1.341-.221,2.824,2.824,0,0,0-2.651,1.483h-.032V24.825Z" transform="translate(-7.707 -3.036)" fill="#fff"/><path d="M73.971,22.947V21.306H72.63v1.641ZM72.63,24.415v8.159h1.341V24.415Z" transform="translate(-8.952 -2.626)" fill="#fff"/><path d="M82.013,27.445H83.4a3.225,3.225,0,0,0-.379-1.255,2.8,2.8,0,0,0-.765-.876,3.171,3.171,0,0,0-1.073-.513,4.931,4.931,0,0,0-1.3-.166,3.949,3.949,0,0,0-1.689.339,3.37,3.37,0,0,0-1.207.931,3.96,3.96,0,0,0-.718,1.389,5.987,5.987,0,0,0-.237,1.712,5.5,5.5,0,0,0,.245,1.681A3.686,3.686,0,0,0,77,32.006a3.2,3.2,0,0,0,1.2.852,4.25,4.25,0,0,0,1.649.3,3.545,3.545,0,0,0,2.47-.821A3.757,3.757,0,0,0,83.449,30H82.076a2.352,2.352,0,0,1-.687,1.468,2.2,2.2,0,0,1-1.554.521,2.221,2.221,0,0,1-1.089-.253A2.119,2.119,0,0,1,78,31.067a2.961,2.961,0,0,1-.418-.955,4.538,4.538,0,0,1-.134-1.1,5.55,5.55,0,0,1,.126-1.192A2.988,2.988,0,0,1,78,26.8a2.166,2.166,0,0,1,.781-.71,2.5,2.5,0,0,1,1.215-.268,1.878,1.878,0,0,1,2.02,1.625Z" transform="translate(-9.371 -3.036)" fill="#fff"/><path d="M92.957,31.311V22.569h2.525a4.619,4.619,0,0,1,1.752.292,2.842,2.842,0,0,1,1.16.852,3.465,3.465,0,0,1,.647,1.357,7.543,7.543,0,0,1,.2,1.807,6.433,6.433,0,0,1-.213,1.775,4.324,4.324,0,0,1-.544,1.223,2.848,2.848,0,0,1-.75.773,3.678,3.678,0,0,1-.844.434,3.541,3.541,0,0,1-.8.189,6.288,6.288,0,0,1-.631.039Zm-1.5-10.005V32.574h3.866a6.764,6.764,0,0,0,2.43-.395,4.241,4.241,0,0,0,1.689-1.144,4.705,4.705,0,0,0,.978-1.846,9.121,9.121,0,0,0,.316-2.517,5.308,5.308,0,0,0-1.4-4.04,5.618,5.618,0,0,0-4.009-1.326Z" transform="translate(-11.272 -2.626)" fill="#fff"/><path d="M105.309,22.947V21.306h-1.341v1.641Zm-1.341,1.468v8.159h1.341V24.415Z" transform="translate(-12.814 -2.626)" fill="#fff"/><path d="M108.621,30.412H107.28A2.952,2.952,0,0,0,107.6,31.7a2.374,2.374,0,0,0,.758.852,3.175,3.175,0,0,0,1.089.466,5.74,5.74,0,0,0,1.294.142,6.629,6.629,0,0,0,1.239-.118,3.364,3.364,0,0,0,1.12-.418,2.4,2.4,0,0,0,.8-.789,2.273,2.273,0,0,0,.308-1.231,1.924,1.924,0,0,0-.229-.978,2.043,2.043,0,0,0-.6-.655,3.216,3.216,0,0,0-.852-.418,10.074,10.074,0,0,0-.986-.268q-.473-.11-.947-.213a5.463,5.463,0,0,1-.852-.253,1.953,1.953,0,0,1-.623-.379.755.755,0,0,1-.245-.576.8.8,0,0,1,.158-.513,1.128,1.128,0,0,1,.41-.316,2.046,2.046,0,0,1,.56-.166,3.991,3.991,0,0,1,.608-.047,3.046,3.046,0,0,1,.655.071,2.008,2.008,0,0,1,.592.229,1.343,1.343,0,0,1,.442.418,1.358,1.358,0,0,1,.205.655h1.341a3,3,0,0,0-.316-1.239,2.124,2.124,0,0,0-.718-.789,2.957,2.957,0,0,0-1.034-.41,6.442,6.442,0,0,0-1.278-.118,4.506,4.506,0,0,0-1.081.134,3.261,3.261,0,0,0-.978.41,2.258,2.258,0,0,0-.71.718,1.955,1.955,0,0,0-.276,1.057,1.784,1.784,0,0,0,.395,1.231,2.663,2.663,0,0,0,.986.686,6.673,6.673,0,0,0,1.286.379q.694.134,1.286.3a3.357,3.357,0,0,1,.986.434.893.893,0,0,1,.395.789.988.988,0,0,1-.189.623,1.2,1.2,0,0,1-.481.371,2.43,2.43,0,0,1-.639.174,4.911,4.911,0,0,1-.663.047,3.976,3.976,0,0,1-.8-.079,2.236,2.236,0,0,1-.694-.26,1.428,1.428,0,0,1-.5-.489A1.51,1.51,0,0,1,108.621,30.412Z" transform="translate(-13.222 -3.036)" fill="#fff"/><path d="M116.928,24.825V36.093h1.341V31.9h.032a2.161,2.161,0,0,0,.544.608,2.868,2.868,0,0,0,.687.387,3.726,3.726,0,0,0,.734.205,4.032,4.032,0,0,0,.671.063,3.789,3.789,0,0,0,1.633-.331,3.274,3.274,0,0,0,1.168-.907,3.864,3.864,0,0,0,.694-1.349,5.756,5.756,0,0,0,.229-1.641,5.577,5.577,0,0,0-.237-1.641,4.147,4.147,0,0,0-.7-1.365,3.354,3.354,0,0,0-1.168-.939,3.68,3.68,0,0,0-1.649-.347,3.888,3.888,0,0,0-1.562.308,2.008,2.008,0,0,0-1.042.986h-.032v-1.1Zm6.313,4.009A5.367,5.367,0,0,1,123.114,30a3.09,3.09,0,0,1-.41,1.01,2.157,2.157,0,0,1-.75.71,2.294,2.294,0,0,1-1.16.268,2.49,2.49,0,0,1-1.184-.26,2.3,2.3,0,0,1-.8-.686,2.871,2.871,0,0,1-.45-.986,4.777,4.777,0,0,1-.008-2.28,2.936,2.936,0,0,1,.434-.986,2.214,2.214,0,0,1,1.925-.971,2.4,2.4,0,0,1,1.128.253,2.243,2.243,0,0,1,.789.679,3,3,0,0,1,.458.971A4.172,4.172,0,0,1,123.241,28.834Z" transform="translate(-14.411 -3.036)" fill="#fff"/><path d="M134.714,32.953a1.9,1.9,0,0,1-.963.205,1.154,1.154,0,0,1-.829-.292,1.269,1.269,0,0,1-.308-.955,3.209,3.209,0,0,1-1.286.955,4.443,4.443,0,0,1-2.636.166,2.44,2.44,0,0,1-.86-.395,1.893,1.893,0,0,1-.576-.7,2.363,2.363,0,0,1-.213-1.049,2.4,2.4,0,0,1,.237-1.136,2.065,2.065,0,0,1,.623-.718,2.857,2.857,0,0,1,.884-.418q.5-.142,1.018-.237.552-.11,1.049-.166a5.847,5.847,0,0,0,.876-.158,1.459,1.459,0,0,0,.6-.3.732.732,0,0,0,.221-.576,1.339,1.339,0,0,0-.166-.71,1.136,1.136,0,0,0-.426-.41,1.733,1.733,0,0,0-.584-.189,4.409,4.409,0,0,0-.639-.047,2.837,2.837,0,0,0-1.42.324,1.373,1.373,0,0,0-.615,1.223H127.36a2.9,2.9,0,0,1,.316-1.278,2.393,2.393,0,0,1,.758-.844,3.178,3.178,0,0,1,1.081-.466,5.709,5.709,0,0,1,1.3-.142,7.637,7.637,0,0,1,1.1.079,2.867,2.867,0,0,1,.986.324,1.891,1.891,0,0,1,.71.686,2.2,2.2,0,0,1,.268,1.152v4.2a3.139,3.139,0,0,0,.055.694q.055.221.371.221a1.329,1.329,0,0,0,.41-.079Zm-2.178-4.182a1.67,1.67,0,0,1-.663.276q-.41.087-.86.142t-.907.126a3.336,3.336,0,0,0-.821.229,1.493,1.493,0,0,0-.592.45,1.26,1.26,0,0,0-.229.8,1.091,1.091,0,0,0,.134.56,1.118,1.118,0,0,0,.347.371,1.456,1.456,0,0,0,.5.205,2.758,2.758,0,0,0,.6.063,3.178,3.178,0,0,0,1.136-.181,2.39,2.39,0,0,0,.773-.458,1.806,1.806,0,0,0,.442-.6,1.517,1.517,0,0,0,.142-.608Z" transform="translate(-15.658 -3.036)" fill="#fff"/><path d="M137.16,24.825v8.159H138.5v-3.63a5.578,5.578,0,0,1,.158-1.4,2.677,2.677,0,0,1,.505-1.034,2.165,2.165,0,0,1,.915-.647,3.794,3.794,0,0,1,1.373-.221v-1.42a3.015,3.015,0,0,0-1.8.442,3.634,3.634,0,0,0-1.2,1.468h-.032v-1.72Z" transform="translate(-16.905 -3.036)" fill="#fff"/><path d="M144.639,22.947V21.306H143.3v1.641ZM143.3,24.415v8.159h1.341V24.415Z" transform="translate(-17.661 -2.626)" fill="#fff"/><path d="M148.944,24.508V22.062H147.6v2.446h-1.389v1.184H147.6v5.192a3.1,3.1,0,0,0,.11.915,1.113,1.113,0,0,0,.339.537,1.31,1.31,0,0,0,.6.26,4.817,4.817,0,0,0,.892.071h1.026V31.484h-.615a4.473,4.473,0,0,1-.513-.024.662.662,0,0,1-.308-.1.39.39,0,0,1-.15-.221,1.464,1.464,0,0,1-.039-.379V25.692h1.626V24.508Z" transform="translate(-18.021 -2.719)" fill="#fff"/><path d="M154.305,22.947V21.306h-1.341v1.641Zm-1.341,1.468v8.159h1.341V24.415Z" transform="translate(-18.853 -2.626)" fill="#fff"/><path d="M162.473,28.124h-4.687a2.794,2.794,0,0,1,.205-.892,2.378,2.378,0,0,1,.473-.734,2.169,2.169,0,0,1,.718-.5,2.336,2.336,0,0,1,.939-.181,2.3,2.3,0,0,1,.923.181,2.323,2.323,0,0,1,.726.489,2.3,2.3,0,0,1,.489.734A2.745,2.745,0,0,1,162.473,28.124Zm1.294,2.273h-1.326a1.908,1.908,0,0,1-.718,1.2,2.322,2.322,0,0,1-1.4.395,2.779,2.779,0,0,1-1.152-.221,2.258,2.258,0,0,1-.8-.592,2.306,2.306,0,0,1-.458-.852,3.239,3.239,0,0,1-.126-1.018h6.107a6.5,6.5,0,0,0-.134-1.562,4.523,4.523,0,0,0-.6-1.515,3.573,3.573,0,0,0-1.152-1.144,3.347,3.347,0,0,0-1.807-.45,3.71,3.71,0,0,0-1.539.316,3.616,3.616,0,0,0-1.215.884,4.074,4.074,0,0,0-.8,1.341,4.91,4.91,0,0,0-.284,1.7,6.54,6.54,0,0,0,.276,1.72,3.754,3.754,0,0,0,.734,1.357,3.344,3.344,0,0,0,1.207.884,4.191,4.191,0,0,0,1.7.316,3.7,3.7,0,0,0,2.3-.694A3.26,3.26,0,0,0,163.768,30.4Z" transform="translate(-19.272 -3.036)" fill="#fff"/><path d="M167.283,30.412h-1.341a2.952,2.952,0,0,0,.316,1.286,2.374,2.374,0,0,0,.758.852,3.175,3.175,0,0,0,1.089.466,5.74,5.74,0,0,0,1.294.142,6.628,6.628,0,0,0,1.239-.118,3.364,3.364,0,0,0,1.12-.418,2.4,2.4,0,0,0,.8-.789,2.273,2.273,0,0,0,.308-1.231,1.923,1.923,0,0,0-.229-.978,2.043,2.043,0,0,0-.6-.655,3.216,3.216,0,0,0-.852-.418,10.072,10.072,0,0,0-.986-.268q-.473-.11-.947-.213a5.462,5.462,0,0,1-.852-.253,1.953,1.953,0,0,1-.623-.379.755.755,0,0,1-.245-.576.8.8,0,0,1,.158-.513,1.128,1.128,0,0,1,.41-.316,2.046,2.046,0,0,1,.56-.166,3.991,3.991,0,0,1,.608-.047,3.046,3.046,0,0,1,.655.071,2.008,2.008,0,0,1,.592.229,1.343,1.343,0,0,1,.442.418,1.357,1.357,0,0,1,.205.655h1.341a3,3,0,0,0-.316-1.239,2.124,2.124,0,0,0-.718-.789,2.957,2.957,0,0,0-1.034-.41,6.442,6.442,0,0,0-1.278-.118,4.506,4.506,0,0,0-1.081.134,3.261,3.261,0,0,0-.978.41,2.258,2.258,0,0,0-.71.718,1.955,1.955,0,0,0-.276,1.057,1.784,1.784,0,0,0,.395,1.231,2.663,2.663,0,0,0,.986.686,6.673,6.673,0,0,0,1.286.379q.694.134,1.286.3a3.357,3.357,0,0,1,.986.434.893.893,0,0,1,.395.789.988.988,0,0,1-.189.623,1.2,1.2,0,0,1-.481.371,2.43,2.43,0,0,1-.639.174,4.911,4.911,0,0,1-.663.047,3.976,3.976,0,0,1-.8-.079,2.236,2.236,0,0,1-.694-.26,1.427,1.427,0,0,1-.5-.489A1.51,1.51,0,0,1,167.283,30.412Z" transform="translate(-20.452 -3.036)" fill="#fff"/></g><g transform="translate(7.014)"><path d="M12.779,4.025c-.123.236-.23.374-.213.555s.207.313.3.5c.083-.213.22-.374.2-.541s-.247-.388-.288-.51" transform="translate(-1.548 -0.496)" fill="#fff" fill-rule="evenodd"/><path d="M16.382,4.025c.123.236.23.374.213.555s-.207.313-.3.5c-.083-.213-.219-.374-.2-.541s.246-.388.288-.51" transform="translate(-1.983 -0.496)" fill="#fff" fill-rule="evenodd"/><path d="M10.7,3.809a.214.214,0,1,0-.214-.214.214.214,0,0,0,.214.214" transform="translate(-1.292 -0.417)" fill="#fff" fill-rule="evenodd"/><path d="M10.832,4.188a.214.214,0,1,0-.214.214.215.215,0,0,0,.214-.214" transform="translate(-1.282 -0.49)" fill="#fff" fill-rule="evenodd"/><path d="M10.951,4.779a.214.214,0,1,0-.214.213.215.215,0,0,0,.214-.213" transform="translate(-1.297 -0.563)" fill="#fff" fill-rule="evenodd"/><path d="M12.051,2.645a.214.214,0,1,0-.214-.214.214.214,0,0,0,.214.214" transform="translate(-1.459 -0.273)" fill="#fff" fill-rule="evenodd"/><path d="M11.444,2.832a.214.214,0,1,0-.214-.214.214.214,0,0,0,.214.214" transform="translate(-1.384 -0.296)" fill="#fff" fill-rule="evenodd"/><path d="M10.967,3.25a.214.214,0,1,0-.214-.214.214.214,0,0,0,.214.214" transform="translate(-1.325 -0.348)" fill="#fff" fill-rule="evenodd"/><path d="M12.688,2.7a.214.214,0,1,0-.215-.214.214.214,0,0,0,.215.214" transform="translate(-1.537 -0.28)" fill="#fff" fill-rule="evenodd"/><path d="M13.294,2.878a.214.214,0,1,0-.215-.215.215.215,0,0,0,.215.215" transform="translate(-1.612 -0.302)" fill="#fff" fill-rule="evenodd"/><path d="M13.863,3.146a.215.215,0,1,0-.214-.214.214.214,0,0,0,.214.214" transform="translate(-1.682 -0.335)" fill="#fff" fill-rule="evenodd"/><path d="M18.25,3.595a.214.214,0,1,0,.214-.215.215.215,0,0,0-.214.215" transform="translate(-2.249 -0.417)" fill="#fff" fill-rule="evenodd"/><path d="M18.546,3.974a.214.214,0,1,0,.215.214.214.214,0,0,0-.215-.214" transform="translate(-2.259 -0.49)" fill="#fff" fill-rule="evenodd"/><path d="M18.427,4.565a.214.214,0,1,0,.215.214.214.214,0,0,0-.215-.214" transform="translate(-2.245 -0.563)" fill="#fff" fill-rule="evenodd"/><path d="M17.113,2.645A.214.214,0,1,0,16.9,2.43a.215.215,0,0,0,.215.214" transform="translate(-2.083 -0.273)" fill="#fff" fill-rule="evenodd"/><path d="M17.72,2.832a.214.214,0,1,0-.214-.214.214.214,0,0,0,.214.214" transform="translate(-2.158 -0.296)" fill="#fff" fill-rule="evenodd"/><path d="M18.2,3.25a.214.214,0,1,0-.214-.214.214.214,0,0,0,.214.214" transform="translate(-2.216 -0.348)" fill="#fff" fill-rule="evenodd"/><path d="M16.475,2.7a.214.214,0,1,0-.214-.214.214.214,0,0,0,.214.214" transform="translate(-2.004 -0.28)" fill="#fff" fill-rule="evenodd"/><path d="M15.871,2.878a.214.214,0,1,0-.214-.215.215.215,0,0,0,.214.215" transform="translate(-1.93 -0.302)" fill="#fff" fill-rule="evenodd"/><path d="M15.087,2.931a.214.214,0,1,0,.214-.215.214.214,0,0,0-.214.215" transform="translate(-1.859 -0.335)" fill="#fff" fill-rule="evenodd"/><path d="M14.2,4.143h.239V3.226a.848.848,0,0,1-.239-.074v.991" transform="translate(-1.75 -0.389)" fill="#fff" fill-rule="evenodd"/><path d="M15,3.152a.855.855,0,0,1-.24.074v.917H15V3.152" transform="translate(-1.819 -0.389)" fill="#fff" fill-rule="evenodd"/><path d="M14.382,1.922V1.378a.673.673,0,0,0-.526.544h.526" transform="translate(-1.708 -0.17)" fill="#fff" fill-rule="evenodd"/><path d="M14.773,1.922h.522a.673.673,0,0,0-.522-.544v.544" transform="translate(-1.821 -0.17)" fill="#fff" fill-rule="evenodd"/><g transform="translate(12.155)"><path d="M0,2.3a.673.673,0,0,0,1.313,0H0" transform="translate(0 -0.283)" fill="#fff" fill-rule="evenodd"/><path d="M1.039,1.122A.745.745,0,0,1,.746.648a.861.861,0,0,1,.486.309V.219A.852.852,0,0,1,.746.529,1.083,1.083,0,0,1,1.027,0H.314a1.084,1.084,0,0,1,.28.529A.851.851,0,0,1,.107.219V.957A.86.86,0,0,1,.593.648.742.742,0,0,1,.3,1.122h.738" transform="translate(-0.013)" fill="#fff" fill-rule="evenodd"/></g><path d="M15.148,17.54a13.709,13.709,0,0,1-2.226-.8v-.009a.584.584,0,0,0-.153-.455.571.571,0,0,0-.425-.209.6.6,0,0,0-.2.039,3.25,3.25,0,0,1-.31-.318,3.679,3.679,0,0,1-.661-1.149,4.048,4.048,0,0,1-.194-.763.694.694,0,0,1-.7.512c.006-.045,0-.155-.037-.166a.528.528,0,0,1-.659.121,5.647,5.647,0,0,0,.247.874,5.154,5.154,0,0,0,.968,1.625,4.631,4.631,0,0,0,.431.432.693.693,0,0,0-.005.087.68.68,0,0,0,.372.516.516.516,0,0,0,.549-.063,6.086,6.086,0,0,0,1.194.463,5.4,5.4,0,0,0,1.374.218,2.437,2.437,0,0,0,1.192-.425,3.065,3.065,0,0,0,.45-.341l.047-.044a3.817,3.817,0,0,1-1.248-.149M12.68,16.526l-.071-.053a.251.251,0,0,0-.358,0,1.373,1.373,0,0,0-.156.163l-.073.084.049.04c.138.111.159.231.12.3a.119.119,0,0,1-.072.055.374.374,0,0,1-.264-.066l-.053-.031-.031.052c-.008.013-.016.025-.025.038s-.023.034-.036.056a.527.527,0,0,0-.088.245.182.182,0,0,0,.007.051.236.236,0,0,0,.135.14l.033.02c.062.04.149.091.214.128a.376.376,0,0,1-.367.015.564.564,0,0,1-.3-.405,1.133,1.133,0,0,1,.2-.569l.02-.031-.019-.033a1.352,1.352,0,0,1-.095-.185c.07.01.139.022.208.039l.035.008.024-.025a1.073,1.073,0,0,1,.628-.375.45.45,0,0,1,.332.166.507.507,0,0,1,.123.257c-.037-.025-.079-.057-.12-.09m.436,1.283a.288.288,0,1,1,.288-.288.289.289,0,0,1-.288.288m1.263.39a.264.264,0,1,1,.263-.264.265.265,0,0,1-.263.264" transform="translate(-1.18 -1.711)" fill="#fff" fill-rule="evenodd"/><g transform="translate(2.61 16.24)"><path d="M12.2,1.666a.491.491,0,0,0-.135.019V.878A5.582,5.582,0,0,1,10.891.7v.987a.442.442,0,0,0-.143-.022.459.459,0,0,0-.458.459.835.835,0,0,0,.228.52c.053-.126.1-.228.171-.228.14,0,.076.7.487.719a.3.3,0,0,0-.021.112.321.321,0,1,0,.641,0,.3.3,0,0,0-.02-.112c.411-.019.341-.719.483-.719.07,0,.114.1.176.228a.832.832,0,0,0,.228-.52.459.459,0,0,0-.459-.459m-.729,1.76a.179.179,0,1,1,.179-.179.179.179,0,0,1-.179.179m.961-1.016a.233.233,0,0,0-.181-.142c-.275,0-.168.726-.5.726a.2.2,0,0,1-.22-.194c0-.1.072-.132.072-.214s-.065-.112-.136-.112-.136.03-.136.112.072.113.072.214a.2.2,0,0,1-.22.194c-.327,0-.219-.726-.495-.726a.232.232,0,0,0-.181.142.653.653,0,0,1-.086-.285.317.317,0,0,1,.317-.317c.368,0,.282.5.458.5a.122.122,0,0,0,.135-.123c0-.143-.255-.279-.255-.483s.186-.376.391-.54c.2.164.392.336.392.54s-.256.34-.256.483a.122.122,0,0,0,.135.123c.176,0,.09-.5.458-.5a.317.317,0,0,1,.317.317.66.66,0,0,1-.086.285" transform="translate(-1.268 -0.086)" fill="#fff" fill-rule="evenodd"/><path d="M20.4,2.549a.085.085,0,0,0-.1-.052c-.945.275-2.116-.506-3.25-1.262A5.669,5.669,0,0,0,14.425,0a1.575,1.575,0,0,0-.758.179,1.36,1.36,0,0,0-.6.7,4.309,4.309,0,0,1-.377.7,1.038,1.038,0,0,0-.226.544.585.585,0,0,0,.2.421,2.055,2.055,0,0,0,.5.339c.049.025.1.048.144.071.188.091.3.153.326.259a6.269,6.269,0,0,1-1.406.4,11.842,11.842,0,0,1-2.015.163A11.832,11.832,0,0,1,8.19,3.612a6.206,6.206,0,0,1-1.408-.4c.015-.158.131-.22.336-.317.048-.023.1-.046.147-.072a2.623,2.623,0,0,0,.485-.3.508.508,0,0,0,.195-.4,1.044,1.044,0,0,0-.225-.544,4.261,4.261,0,0,1-.377-.7,1.352,1.352,0,0,0-.6-.7A1.566,1.566,0,0,0,5.986,0,5.66,5.66,0,0,0,3.359,1.237C2.226,1.992,1.054,2.773.11,2.5A.086.086,0,0,0,0,2.551a.087.087,0,0,0,.046.108,3.865,3.865,0,0,1,.786.515,1.822,1.822,0,0,0,1.016.516,2.459,2.459,0,0,0,1.134-.336,11.985,11.985,0,0,0,1.156-.728A5.269,5.269,0,0,1,6.391,1.533c-.076.079-.151.146-.221.208a.882.882,0,0,0-.4.7,1.577,1.577,0,0,0,.218.72c.037.075.079.163.123.261a2.742,2.742,0,0,1,.165.525c.021.087.045.183.076.3a1.109,1.109,0,0,0,.669.771,7.63,7.63,0,0,0,3.187.478,7.624,7.624,0,0,0,3.186-.478,1.111,1.111,0,0,0,.67-.771c.031-.115.054-.211.075-.3a2.7,2.7,0,0,1,.165-.525c.059-.132.117-.24.168-.336a1.235,1.235,0,0,0,.2-.617.928.928,0,0,0-.423-.719c-.072-.064-.149-.135-.229-.217a5.261,5.261,0,0,1,2.25,1.095,12.234,12.234,0,0,0,1.156.727,2.462,2.462,0,0,0,1.135.335,1.826,1.826,0,0,0,1.016-.517,3.962,3.962,0,0,1,.784-.515.087.087,0,0,0,.047-.109" transform="translate(0 0)" fill="#fff" fill-rule="evenodd"/></g><path d="M18.558,11.786a1.253,1.253,0,0,1-.363-.423c-.112-.232-.58-1.153-.654-1.277a.557.557,0,0,1-.092-.275.414.414,0,0,1,.1-.244c.037-.046.139-.145.177-.206a.739.739,0,0,1,.083-.109,4.462,4.462,0,0,0-.57-.77,4.632,4.632,0,0,0-.915-.792.67.67,0,0,0,.361-.566.514.514,0,0,0-.188-.4,5.239,5.239,0,0,1,.816-1.653l-.607-.256a.955.955,0,0,1,.134.684.778.778,0,0,1-.338-.459,2.707,2.707,0,0,1-.223.659.555.555,0,0,1,.494-.046.721.721,0,0,1-.763.255c-.216-.052-.43-.166-.421-.333a.2.2,0,0,1,.214-.206c.132.013.139.214.1.3.173-.1.353-.606.082-.682-.213-.059-.408.234-.478.459-.041-.271-.153-.531-.368-.516-.279.019-.188.534-.091.665.017-.181.116-.277.2-.271s.173.058.156.222-.251.266-.52.266a.661.661,0,0,1-.749-.574.934.934,0,0,1,.539.323,3.248,3.248,0,0,1,0-.822.846.846,0,0,1-.531.323,1,1,0,0,1,.441-.569h-1.1a1,1,0,0,1,.441.567A.838.838,0,0,1,13.4,4.74a3.276,3.276,0,0,1,0,.822.921.921,0,0,1,.53-.321.661.661,0,0,1-.748.572c-.268,0-.5-.1-.52-.266s.083-.217.156-.222.181.09.2.271c.1-.131.188-.647-.091-.665-.215-.015-.328.244-.368.516-.071-.225-.266-.517-.479-.459-.271.076-.091.584.083.682-.042-.09-.034-.291.1-.3a.2.2,0,0,1,.213.206c.01.167-.205.281-.421.333a.723.723,0,0,1-.761-.253.557.557,0,0,1,.5.044,2.679,2.679,0,0,1-.224-.659.78.78,0,0,1-.346.463.948.948,0,0,1,.133-.689l-.606.256a5.282,5.282,0,0,1,.817,1.658.51.51,0,0,0-.181.4.667.667,0,0,0,.36.566,4.614,4.614,0,0,0-.915.792A5.113,5.113,0,0,0,9.859,10.1c.084.086.447.482.533.59a.981.981,0,0,1,.244.53.794.794,0,0,0,.214.567,1.017,1.017,0,0,1,.118.406h3.013v3.28a.453.453,0,0,0-.346.163c.349.141.679.266,1.012.37a.88.88,0,0,1,.183-.48s-.437-.043-.672-.056V12.188H17.1a4.135,4.135,0,0,1-.239,1.3,3.7,3.7,0,0,1-.661,1.149,3.053,3.053,0,0,1-.977.772c-.059.029-.057.071-.117.1a.84.84,0,0,0-.145.266,1.14,1.14,0,0,0-.068.3c.138.043.213.065.345.1,1.034.259,1.29.183,1.349.138h0a4.66,4.66,0,0,0,.65-.61,5.171,5.171,0,0,0,.968-1.625,5.654,5.654,0,0,0,.355-1.987c0-.125,0-.167,0-.291Zm-4.577.225H10.964a4.141,4.141,0,0,1,.242-1.347,3.7,3.7,0,0,1,.661-1.149,3.1,3.1,0,0,1,.976-.772,2.669,2.669,0,0,1,1.138-.278Zm.052-5.02a3.757,3.757,0,0,0-2.1.565c-.233-.138-.333-.273-.333-.433,0-.571,1.614-.622,2.433-.622h0c.819,0,2.433.051,2.433.622,0,.16-.1.3-.335.433a3.753,3.753,0,0,0-2.1-.565Zm.125,5.02V8.469a2.674,2.674,0,0,1,1.066.274,3.08,3.08,0,0,1,.977.772,3.717,3.717,0,0,1,.661,1.149,4.128,4.128,0,0,1,.241,1.347Z" transform="translate(-1.215 -0.554)" fill="#fff" fill-rule="evenodd"/><path d="M17.258,12.041a.057.057,0,0,1-.032.108,3.348,3.348,0,0,0-.566-1.494l.008-.009a.188.188,0,0,0,.125-.154.194.194,0,0,0-.19.084c-.02-.028-.042-.056-.065-.084a2.807,2.807,0,0,0-.638-.6,2.345,2.345,0,0,0-.709-.325.057.057,0,0,1,.109-.016c.009-.093-.072-.14-.118-.122a.082.082,0,0,0-.053.073A.2.2,0,0,0,15,9.433a.2.2,0,0,0,.042.141.085.085,0,0,0-.078.038.1.1,0,0,0,.1.138.056.056,0,0,1,.031-.1V10.8a.192.192,0,0,0-.191.049.188.188,0,0,0,.191.05v1.251a.057.057,0,0,1-.029-.107.1.1,0,0,0-.113.128.086.086,0,0,0,.1.046.2.2,0,0,0-.05.132.187.187,0,0,0,.131-.051.088.088,0,0,0,.047.1.1.1,0,0,0,.127-.112.058.058,0,0,1-.108-.024h.868a.194.194,0,0,0,.05.19.192.192,0,0,0,.05-.19h.968a.057.057,0,0,1-.106.03.1.1,0,0,0,.131.109.086.086,0,0,0,.044-.1.2.2,0,0,0,.133.047.2.2,0,0,0-.054-.13.089.089,0,0,0,.1-.047.1.1,0,0,0-.116-.126m-.833-1.525a.084.084,0,0,0-.029.083.087.087,0,0,0,.089.058.2.2,0,0,0-.069.124.193.193,0,0,0,.137-.032.085.085,0,0,0,.032.1.079.079,0,0,0,.079,0,3.25,3.25,0,0,1,.441,1.2.2.2,0,0,0-.11-.03.189.189,0,0,0,.06.136h-.736a.09.09,0,0,0-.049-.1.085.085,0,0,0-.1.035.2.2,0,0,0-.058-.129.2.2,0,0,0-.057.129.086.086,0,0,0-.1-.035.092.092,0,0,0-.049.1h-.628a.192.192,0,0,0,.045-.124.19.19,0,0,0-.126.046V11.053a.089.089,0,0,0,.1-.047.087.087,0,0,0-.035-.1.2.2,0,0,0,.129-.058.193.193,0,0,0-.129-.056.088.088,0,0,0,.035-.1.09.09,0,0,0-.1-.048V9.781a.2.2,0,0,0,.108.044.2.2,0,0,0-.029-.123,2.306,2.306,0,0,1,.567.277,2.706,2.706,0,0,1,.582.536" transform="translate(-1.837 -1.162)" fill="#fff" fill-rule="evenodd"/><path d="M16.8,11.832a.161.161,0,0,0,.081-.075.093.093,0,0,1-.083-.01c.029-.017.064,0,.029-.053s-.057-.056-.093-.016a.212.212,0,0,1-.268-.186.159.159,0,0,0,.08.067l.028.014.03.006a.173.173,0,0,0,.067.01h.013v-.006a.1.1,0,0,0,.091-.092c.009-.1-.083-.141-.184-.226-.04-.034-.069-.061-.095-.087-.035-.069-.011-.132-.1-.259a.575.575,0,0,0-.029-.112.321.321,0,0,0,.055.371c.1.107.306.21.3.3a.059.059,0,0,1-.053.046.246.246,0,0,1-.029,0l-.019-.006a.163.163,0,0,1-.044-.02.324.324,0,0,1-.073-.057,2.2,2.2,0,0,1-.216-.265.387.387,0,0,1-.038-.346c.068-.093-.041-.287-.106-.334a.175.175,0,0,0,0-.1.1.1,0,0,1-.059.007c-.018-.036-.025-.043-.049-.047-.042-.006-.041-.03-.045-.046-.024.022-.033.043-.058.045s-.049,0-.062.012a.087.087,0,0,1-.073.026c-.039,0-.039.022-.036.051s0,.046.029.056l.012.006.032.037.02-.04c.017-.016.069-.019.078.017s.012.033-.02.036-.053,0-.085.006-.021.029-.021.048.027.034.073.022.129-.02.129.02c0,.1-.119.1-.146.225a.239.239,0,0,1-.073-.068.445.445,0,0,0-.088-.108.479.479,0,0,0-.09-.074c-.042-.025-.043-.045-.043-.088s.016-.071.015-.105a.146.146,0,0,0-.01-.032.058.058,0,0,0-.056-.036.049.049,0,0,1,.023.037.106.106,0,0,0-.017.02.025.025,0,0,0,0,.036s0,0,0,.008a.075.075,0,0,1,0,.018c0,.006,0,0-.005,0-.01-.026-.021-.064-.045-.067h-.017a.011.011,0,0,0,0-.005c0-.027-.03-.048-.063-.016.008,0,.02,0,.025.01a.142.142,0,0,0-.007.028c0,.026.018.039.049.039a.008.008,0,0,1,.008.006s0,.008,0,.012,0,0,0,0c-.048-.021-.068,0-.07.022a.092.092,0,0,0,0,.02c-.018.011-.021.037.01.056,0-.009,0-.025.01-.03a.01.01,0,0,0,.007,0,.041.041,0,0,0,.014.012s.012,0,.027-.009a.01.01,0,0,1,.012,0l.014.009s0,0,0,.007c-.03.031-.024.058.012.068a.039.039,0,0,1-.07-.03c-.04.066.027.112.083.088,0,.023,0,.07.01.071a.012.012,0,0,1,.013-.013s0,0,0,.007a.036.036,0,0,0,.029.037.015.015,0,0,1,.007-.02c.008.015.02.032.027.046a.457.457,0,0,0,.207.227.567.567,0,0,0-.146.139c-.035.034-.086.071-.118.052-.014-.01-.018-.022-.037-.037a.056.056,0,0,0-.039-.011.137.137,0,0,0-.021.009.06.06,0,0,0-.065.02.053.053,0,0,1,.045.007.116.116,0,0,1,0,.022c0,.015.011.032.076.028,0,0,.011,0,.008.007a.033.033,0,0,1-.034.01c-.029-.007-.043-.031-.064,0a.079.079,0,0,1-.013.017s0,0-.006,0c-.025.008-.049.057-.02.078a.048.048,0,0,1,.019-.039l.013.015c.018.028.039.043.082-.022,0-.006.006,0,.005,0,0,.031-.031.074.007.079l.019,0a.028.028,0,0,0,0,.007.057.057,0,0,0,.073.035.067.067,0,0,1-.041-.043c.008,0,.018,0,.019,0,.024-.023,0-.053.007-.069s.007,0,.009,0a.045.045,0,0,0,.062.024.055.055,0,0,0,.025-.042.177.177,0,0,1,.114-.022c-.006-.023.02-.054.067-.066a.074.074,0,0,1,.082.015.214.214,0,0,1,.047-.08c0,.184.242.18.3.29a.427.427,0,0,0-.2-.039c-.06.011-.165.068-.18.137a.257.257,0,0,0,.107.2c-.071.013-.1-.008-.163.009l-.006,0c-.056.006-.064-.093-.131-.067a.05.05,0,0,0-.018.013h0c-.026,0-.062.032-.055.058a.074.074,0,0,1,.042-.024.113.113,0,0,0,0,.014c0,.01,0,.022.025.022s.018-.006.027-.006a.008.008,0,0,1,.008.008c0,.026-.083-.015-.068.057a.151.151,0,0,0,.013.02c0,.021.015.043.052.031-.007,0-.021-.015-.017-.026l.016,0s.007,0,.009-.011,0,0,0,0,.008,0,.008.006-.005.008-.005.016a.106.106,0,0,0,.006.022c0,.025.034.052.07.026-.01,0-.033-.006-.035-.019a.052.052,0,0,0,.017-.007.034.034,0,0,0,.008-.024c0-.007,0-.007.007-.007l.018,0a.009.009,0,0,1,.011.006.044.044,0,0,0,.052.021.032.032,0,0,0,.022-.018.284.284,0,0,1,.03.018c-.007-.026.012-.048.069-.009l.042-.032s.055.023.076,0,.016-.031.016-.06c-.024-.055-.038-.05-.05-.1-.018-.092.109-.144.183-.129a.415.415,0,0,0,.232.257c.085.03.119-.064.147-.051.006,0,.011.011.015.026a.414.414,0,0,1-.009.1c-.009.021-.055,0-.086,0a.037.037,0,0,0-.033.014c-.026,0-.057.028-.055.058a.1.1,0,0,1,.047-.025s0,.01,0,.012a.039.039,0,0,0,.068.024c0-.005.013,0,.007,0s-.059.05-.027.064l.019.009a.045.045,0,0,0,.033.048c-.006-.012-.008-.02,0-.044h.018c.023,0,.013-.044.038-.057,0,0,.006,0,0,0-.009.026-.013.057.01.065l.019,0a.044.044,0,0,0,.065.018c-.008,0-.025-.011-.03-.022a.178.178,0,0,0,.017-.023c.017-.055-.032-.056-.032-.078s.055-.01.055-.064a.079.079,0,0,0,0-.009c.027-.014.054-.031.056-.052a.147.147,0,0,1-.069-.013v0" transform="translate(-1.893 -1.271)" fill="#fff" fill-rule="evenodd"/><path d="M13.868,13.89l-.051,0v-.048a.274.274,0,0,0-.289-.308,4.713,4.713,0,0,1-.954.22A1.265,1.265,0,0,1,12,13.57l-.057.137a.069.069,0,0,0,0-.014.114.114,0,1,0-.025.071l-.057.136c.019.009.039.017.06.025a1.874,1.874,0,0,0,1.353,1.848c.135-.036.272-.016.272.131a.114.114,0,0,1-.127.13c-.054,0-.089-.032-.089-.068,0-.06.106-.024.117-.066s-.022-.08-.084-.08a.151.151,0,0,0-.159.147.2.2,0,0,0,.206.2.264.264,0,0,0,.283-.3c.049,0,.1-.006.115-.052l.01-.141-.049-.007.038-1.59.036,0a.093.093,0,1,0,.019-.184m-1.64.124,1.1,1.585a1.566,1.566,0,0,1-1.1-1.585m1.135,1.433-1-1.444c.033,0,.065,0,.092,0a1,1,0,0,0,.155-.011l.806,1.156c-.017.112-.035.214-.048.3m.073-.458-.709-1.017a1.789,1.789,0,0,0,.227-.068l.533.761c-.016.107-.034.217-.052.324m.171-1.118-.041,0a.1.1,0,0,0-.112.082.1.1,0,0,0,.1.1l.03,0c0,.013,0,.027-.006.042-.013.089-.037.239-.064.412l-.449-.644a2.191,2.191,0,0,1,.471-.175c.072,0,.088.035.072.182" transform="translate(-1.445 -1.668)" fill="#fff" fill-rule="evenodd"/><path d="M13.763,10.189c.215,0,.321-.069.321-.137,0-.238-.59-.091-.59-.236a.088.088,0,0,1,.043-.065h.009c.3-.027.3-.232.513-.274-.256-.036-.292.165-.4.175a.135.135,0,0,0,.074-.123c-.052.07-.167.075-.231.156a.05.05,0,0,0-.01.042.107.107,0,0,0-.063.087c0,.226.6.071.6.235,0,.057-.1.1-.268.1-.123,0-.212-.088-.442-.029,0-.038.077-.111.048-.146a.054.054,0,0,0,.038-.045.079.079,0,0,0-.045-.02c.008-.011,0-.024-.011-.032s-.006-.027-.012-.032a.226.226,0,0,0-.053-.035.135.135,0,0,0-.053-.015.122.122,0,0,0-.033,0c-.014,0-.029,0-.03.014a.067.067,0,0,0-.042-.018.083.083,0,0,0-.006.063c-.021,0-.044.056-.065.051.008.015.014.022.021.023-.017.032-.025.071-.046.072a.146.146,0,0,0,.016.018.621.621,0,0,0-.031.136h0a.229.229,0,0,0-.048-.038c-.035-.02-.032-.037-.027-.071s.024-.057.027-.084c0,0,0-.02,0-.027a.046.046,0,0,0-.046-.031.03.03,0,0,1,.015.031.2.2,0,0,1-.017.014c-.008.009-.013.02,0,.03a.006.006,0,0,1,0,.007.039.039,0,0,1,0,.014c0,.005,0,0,0,0,0-.022-.011-.051-.031-.054h-.016a.007.007,0,0,0,0,0c0-.022-.021-.04-.055-.014.007,0,.018,0,.022.009a.1.1,0,0,0-.01.023c0,.022.012.031.038.032.006,0,.008,0,.008,0a.033.033,0,0,1,0,.01s0,0,0,0c-.042-.018-.062,0-.067.016,0,0,0,.012,0,.017-.016.009-.023.029,0,.046,0-.008,0-.022.013-.025h.006a.05.05,0,0,0,.009.01s.011,0,.027-.007a.009.009,0,0,1,.011,0l.012.008s0,0,0,.006c-.034.025-.033.05,0,.058,0,0,.005,0,0,.007-.01.049-.08.038-.069-.01-.048.055.015.1.071.07,0,0,.005,0,.006,0a.019.019,0,0,0,.015.018s0-.011.013-.011,0,0,0,.006,0,.029.02.032c0-.01,0-.02.01-.02s.023.04.054.075a.7.7,0,0,1-.133.04.3.3,0,0,0-.1,0c-.034.018-.118.049-.142.014-.008-.011-.006-.024-.016-.042a.048.048,0,0,0-.027-.021h-.02a.045.045,0,0,0-.056-.006.041.041,0,0,1,.032.021.074.074,0,0,0-.009.018c-.007.01,0,.028.05.046,0,0,.006.006,0,.009a.028.028,0,0,1-.03,0c-.021-.016-.023-.041-.049-.026l-.016.009-.006,0c-.023,0-.06.027-.043.053a.042.042,0,0,1,.028-.024c0,.006,0,.015,0,.016.006.027.017.048.072.012.006,0,.006,0,0,0-.012.023-.049.047-.021.065a.086.086,0,0,1,.013.009.008.008,0,0,0,0,.005.048.048,0,0,0,.046.052.049.049,0,0,1-.017-.046l.016,0c.026-.01.014-.042.028-.053s.007,0,.008,0,.007.044.04.041a.045.045,0,0,0,.041-.045s0,0,0,0a.031.031,0,0,1,.016.035.045.045,0,0,0,.022-.023.045.045,0,0,1-.012.055.08.08,0,0,0,.051-.053.047.047,0,0,1,.011.017s0,0,0,0a.109.109,0,0,0,.064,0s0,0,0,0a.036.036,0,0,0,0,.032.029.029,0,0,1,.012-.016c.009,0,0,.031.019.05.006-.08.05-.049.1-.081.006,0,.007,0,.006,0a.058.058,0,0,1-.022.026c.019,0,.062-.018.062-.047,0-.006.015-.016.032-.027a.056.056,0,0,0,.057-.026c0,.009.011.032,0,.038.052,0,.107-.056.128-.061.112-.023-.071-.1.16-.091a.115.115,0,0,0,.068-.025c-.018.035-.019.1.016.11a.137.137,0,0,1,.059.025s0,0,0,.006a.155.155,0,0,0-.049.013c-.055.036-.056-.081-.113-.059l-.015.011c-.023,0-.054.028-.049.051a.059.059,0,0,1,.037-.021s0,.011,0,.012,0,.018.021.018.014,0,.023,0,.006,0,.006.006c0,.023-.071-.013-.058.047a.056.056,0,0,0,.011.019c0,.018.013.036.045.026-.006-.005-.018-.012-.015-.022l.015,0s.006,0,.007-.01,0,0,0,0,.007,0,.007.005-.005.007-.005.013a.061.061,0,0,0,.006.018c0,.022.028.044.06.022-.009,0-.028-.005-.031-.015a.032.032,0,0,0,.014-.006.024.024,0,0,0,.007-.021c0-.005,0-.005.006-.005H13.5a.012.012,0,0,1,.011,0,.034.034,0,0,0,.044.019c.038-.013,0-.046.037-.053a.03.03,0,0,1,.023,0c.03.007.075.006.083-.008a.086.086,0,0,0-.028-.089c-.02-.009,0-.032-.018-.06a.278.278,0,0,0,.114.028c.083,0,0-.012.041-.034a.127.127,0,0,1,.1-.011c.011,0,.02.006.017.019-.009.044,0,.048-.005.068s-.043,0-.067,0a.029.029,0,0,0-.026.01.052.052,0,0,0-.044.047.077.077,0,0,1,.037-.019s0,.006,0,.008a.031.031,0,0,0,.054.019s.011,0,.006,0-.047.04-.022.052l.014.006a.038.038,0,0,0,.028.04c-.006-.01-.007-.015,0-.036h.014c.018,0,.011-.036.031-.047,0,0,.005,0,0,0-.007.021-.011.046.008.053l.015,0a.033.033,0,0,0,.05.014A.046.046,0,0,1,14,10.52a.086.086,0,0,0,.014-.019c.012-.045-.025-.045-.025-.063s.043-.009.043-.053a.03.03,0,0,0-.018-.027s0,0,0,0h0c.012,0,.024,0,.03-.013-.031,0-.022-.025-.027-.043a.008.008,0,0,1,0-.007.044.044,0,0,0,.014-.047c-.011.014-.047.032-.05,0,0,0,0-.024-.035-.018-.055.006-.081-.023-.186-.033-.006,0-.011-.005,0-.006m-.5-.279a.279.279,0,0,0,.07.027c-.032.008-.024.021-.046.019s-.029-.027-.025-.047m-.044-.023c-.009.017-.029.029-.045.015s0-.02-.016-.049a.3.3,0,0,0,.061.034m-.066.145c0-.012.011-.021.017-.021A.019.019,0,0,0,13.191,10c.006-.013-.008-.019-.019-.029.013,0,.019-.008.012-.015s-.021.005-.025,0,.009-.011.013-.015.01,0,.017,0l.057.028c.008,0,.012.006.012.014s0,.016,0,.019-.005-.017-.016-.019-.009.008,0,.021c-.014-.006-.026-.011-.032,0a.022.022,0,0,0,0,.028c.006.005,0,.016,0,.029a.03.03,0,0,1-.041.02.031.031,0,0,1-.011-.046" transform="translate(-1.532 -1.168)" fill="#fff" fill-rule="evenodd"/><path d="M14,11.172c0-.068-.072-.111-.282-.111s-.685.082-.685-.041c0-.061.093-.056.2-.049a.084.084,0,0,0,.046.025c.271.083.591-.067.756-.018-.194-.153-.355.005-.562-.041.121,0,.163-.035.168-.07-.093.064-.272-.032-.382.039l-.017.015c-.151,0-.27,0-.27.1,0,.219.564.091.741.091s.215.018.215.054c0,.052-.176.066-.276.066a4.292,4.292,0,0,0-.9-.026c.023-.047.073-.109.046-.143a.069.069,0,0,0,.044-.055.1.1,0,0,0-.051-.025c.008-.013,0-.027-.014-.038s-.008-.034-.014-.038a.239.239,0,0,0-.061-.043.209.209,0,0,0-.064-.019.178.178,0,0,0-.038.006c-.015,0-.033,0-.036.016a.08.08,0,0,0-.048-.021.1.1,0,0,0-.007.078c-.025,0-.051.069-.075.061.009.018.016.026.024.028-.021.039-.03.085-.054.087.016.022.026.031.036.033,0,.029,0,.06-.006.084l-.045-.016-.012,0a.033.033,0,0,1-.018-.007l.019,0-.026-.01a.718.718,0,0,0-.092-.082c-.041-.024-.041-.046-.038-.09s.02-.075.02-.109c0-.005-.006-.024-.009-.034a.053.053,0,0,0-.054-.039.047.047,0,0,1,.021.039.141.141,0,0,0-.018.021.029.029,0,0,0,0,.038.009.009,0,0,1,0,.008.065.065,0,0,1,0,.018c0,.007,0,0,0,0-.008-.027-.019-.067-.042-.068,0,0-.013,0-.017,0s0,0,0,0c0-.029-.028-.051-.061-.017a.033.033,0,0,1,.025.012.114.114,0,0,0-.008.029c0,.028.016.038.045.039a.009.009,0,0,1,.009.005l0,.013c0,.005,0,0,0,0-.047-.022-.068,0-.07.024a.1.1,0,0,0,0,.02c-.018.013-.024.039.007.06,0-.01,0-.027.012-.031l.007,0a.045.045,0,0,0,.012.013s.012,0,.028-.01.008,0,.012,0l.014.01a.005.005,0,0,1,0,.009c-.033.032-.03.064.012.072a.008.008,0,0,1,.008.01c-.008.062-.086.05-.078-.011-.047.071.028.125.086.089,0,0,.005,0,.007,0a.025.025,0,0,0,.018.024.015.015,0,0,1,.014-.014s0,0,0,.007,0,.036.027.039c0-.011,0-.024.009-.024s.037.048.084.076.067.062.093.035c0,.042.033.091.024.091a.515.515,0,0,0-.148.006c-.04.023-.138.059-.166.017-.01-.015-.007-.028-.02-.05a.051.051,0,0,0-.032-.026H12.07A.058.058,0,0,0,12,11.384a.045.045,0,0,1,.037.026.2.2,0,0,0-.01.02c-.009.013,0,.035.058.058,0,0,.008.007,0,.01a.03.03,0,0,1-.033,0c-.025-.02-.028-.048-.057-.031l-.019.01a.009.009,0,0,0-.006,0c-.027,0-.069.031-.051.064a.052.052,0,0,1,.034-.029c0,.008.005.017.006.021.006.032.019.058.084.013.007-.006.007,0,.005,0-.016.029-.058.056-.024.079l.014.012,0,.005a.06.06,0,0,0,.053.065.07.07,0,0,1-.02-.056l.018,0c.031-.013.017-.052.034-.063s.009,0,.009,0,.01.053.046.049a.051.051,0,0,0,.049-.053s0,0,0,0a.037.037,0,0,1,.017.04.055.055,0,0,0,.027-.027.057.057,0,0,1-.014.067.1.1,0,0,0,.06-.065.1.1,0,0,1,.013.022s0,0,0,0a.139.139,0,0,0,.074,0s0,0,0,0a.04.04,0,0,0,0,.038c0-.005.01-.02.015-.02s0,.038.022.061c.008-.1.059-.06.117-.1.007,0,.007,0,0,0a.049.049,0,0,1-.024.032c.064.014.166-.087.181-.131A.346.346,0,0,1,12.8,11.5c.185.017.056-.174.353-.119a.14.14,0,0,0,.072-.035c-.021.04-.022.125.018.132a.149.149,0,0,1,.07.032s0,0,0,.007a.2.2,0,0,0-.057.014c-.062.045-.065-.1-.132-.071a.109.109,0,0,0-.019.014c-.026,0-.063.032-.056.061a.069.069,0,0,1,.043-.025c0,.006,0,.014,0,.016s0,.022.025.022.016-.007.025-.007.009,0,.009.008c0,.026-.084-.016-.069.058a.142.142,0,0,0,.012.021c0,.022.015.045.051.032-.006,0-.02-.014-.017-.026l.016,0s.008,0,.01-.012,0,0,0,0,.006,0,.006.006,0,.009,0,.016a.059.059,0,0,0,.007.023c0,.027.033.055.07.028-.01,0-.033-.005-.037-.019l.018-.008a.038.038,0,0,0,.008-.027c0-.005,0-.006.006-.006h.017c.009,0,.011,0,.013,0a.04.04,0,0,0,.052.023c.045-.016.008-.057.043-.066a.06.06,0,0,1,.026,0c.036.01.089.008.1-.009a.1.1,0,0,0-.034-.107c-.022-.011,0-.04-.02-.073a.318.318,0,0,0,.132.033.235.235,0,0,0,.165-.042.161.161,0,0,1,.116-.012c.013,0,.023.008.019.026-.011.053.005.056-.006.081s-.051,0-.079,0a.031.031,0,0,0-.03.014.06.06,0,0,0-.05.057.1.1,0,0,1,.044-.024c0,.005,0,.01,0,.011a.036.036,0,0,0,.063.024s.012,0,.007.005-.054.049-.025.06a.058.058,0,0,0,.018.011.045.045,0,0,0,.031.048c-.006-.012-.009-.019,0-.044h.017c.021,0,.011-.044.035-.058,0,0,.006,0,0,0-.009.026-.013.057.009.064l.018,0a.038.038,0,0,0,.058.019c-.006,0-.021-.011-.025-.022a.152.152,0,0,0,.015-.024c.015-.053-.03-.054-.03-.076s.051-.008.051-.062a.034.034,0,0,0-.021-.034s0,0,0,0h0c.015,0,.029,0,.037-.018-.039,0-.027-.031-.032-.052a.009.009,0,0,1,0-.01c.013-.008.021-.026.017-.057-.013.018-.055.039-.06,0,0,0,0-.028-.04-.021a1.288,1.288,0,0,1-.23-.018c.138,0,.342-.038.342-.119m-1.312-.187a.3.3,0,0,0,.083.033c-.038.008-.028.024-.053.023s-.033-.034-.03-.057m-.051-.027c-.01.019-.033.036-.053.017s0-.024-.019-.06a.333.333,0,0,0,.072.043m-.079.177c.008-.015.013-.027.022-.027s.022,0,.027-.016-.009-.026-.024-.036c.016,0,.024-.011.016-.019s-.024.007-.028,0,.009-.013.013-.018.012,0,.022,0l.066.033c.009,0,.014.008.014.017s0,.021,0,.025-.006-.022-.018-.025-.011.011,0,.026c-.016-.005-.031-.014-.039,0a.027.027,0,0,0,0,.035c.006.007,0,.019,0,.035s-.025.039-.048.025a.041.041,0,0,1-.014-.055" transform="translate(-1.469 -1.335)" fill="#fff" fill-rule="evenodd"/><path d="M13.869,12.235c0-.066-.066-.108-.267-.108s-.818.08-.818-.041c0-.076.209-.045.362-.041a.074.074,0,0,0,.045.031c.258.079.528-.107.713-.041-.146-.143-.335.015-.53-.028.115,0,.233-.025.24-.058-.089.062-.34-.043-.445.029a.053.053,0,0,0-.017.015c-.191,0-.423-.028-.423.094,0,.215.7.089.871.089s.2.019.2.053c0,.051-.168.063-.262.063a4.509,4.509,0,0,0-1.074-.007c.015-.048.077-.12.048-.157a.065.065,0,0,0,.043-.054.094.094,0,0,0-.049-.026c.008-.011,0-.026-.012-.037s-.009-.032-.013-.037a.342.342,0,0,0-.06-.043.238.238,0,0,0-.06-.017c-.008,0-.034.007-.037.006s-.031,0-.034.015a.077.077,0,0,0-.045-.021.1.1,0,0,0-.007.077c-.024,0-.05.066-.072.059.008.019.015.026.022.028-.019.038-.027.083-.051.086a.131.131,0,0,0,.022.025.4.4,0,0,0-.008.066l-.021-.008a.147.147,0,0,1-.031,0,.229.229,0,0,0-.034-.005c-.032,0-.055-.058-.108-.091s-.041-.045-.041-.09.017-.071.014-.106c0,0-.006-.023-.01-.033s-.036-.043-.053-.037a.048.048,0,0,1,.021.038.081.081,0,0,0-.015.02.027.027,0,0,0,0,.037.013.013,0,0,1,0,.008.079.079,0,0,1,0,.017c0,.007,0,0,0,0-.009-.028-.021-.066-.043-.067a.072.072,0,0,0-.016,0,.01.01,0,0,0,0-.005c0-.027-.029-.049-.059-.016.006,0,.018,0,.023.011a.226.226,0,0,0-.007.028c0,.028.018.038.046.039a.007.007,0,0,1,.008.005l0,.012c0,.005,0,.005,0,0-.044-.022-.064,0-.065.023a.066.066,0,0,0,0,.019c-.017.013-.021.039.009.058,0-.008,0-.027.011-.03l0,0c.005,0,.012.01.013.013s.012,0,.026-.01a.011.011,0,0,1,.012,0l.013.009a.006.006,0,0,1,0,.009c-.031.031-.025.063.015.07,0,0,.006,0,.006.01,0,.06-.077.048-.074-.012a.062.062,0,0,0,.087.087s0,0,.006,0,.009.021.019.022a.012.012,0,0,1,.013-.013s0,0,0,.006.007.036.027.039c0-.013,0-.025.007-.025a.64.64,0,0,0,.132.131c.016,0,.039,0,.046-.025,0,.007.008.014.018.021,0,.04.027.089.019.089a.64.64,0,0,0-.166.008c-.038.022-.13.058-.157.016-.009-.014-.007-.027-.019-.048a.046.046,0,0,0-.03-.026h-.022a.051.051,0,0,0-.063-.008.045.045,0,0,1,.036.026.153.153,0,0,1-.011.018c-.006.014,0,.035.056.057,0,0,.008.006,0,.009a.027.027,0,0,1-.033,0c-.022-.019-.026-.046-.053-.03l-.019.009-.007,0c-.025,0-.065.033-.047.065a.045.045,0,0,1,.032-.029.077.077,0,0,1,0,.02c.006.032.019.057.08.013.006,0,.006,0,.005,0-.015.027-.056.055-.025.077l.014.012a.01.01,0,0,0,0,.005.057.057,0,0,0,.05.063.071.071,0,0,1-.019-.057c.008,0,.015.008.017.005.029-.011.016-.05.033-.062s.009,0,.009,0,.008.05.044.047a.05.05,0,0,0,.046-.053s0,0,0,0a.038.038,0,0,1,.017.039.065.065,0,0,0,.025-.026.06.06,0,0,1-.014.064.088.088,0,0,0,.057-.063.061.061,0,0,1,.012.021l0,0a.111.111,0,0,0,.071,0s0,0,0,0a.063.063,0,0,0,0,.039s.01-.019.015-.019,0,.037.019.058c.009-.094.112-.046.168-.085.007,0,.008,0,.006,0a.064.064,0,0,1-.024.032.126.126,0,0,0,.073-.031l-.007.008.09-.043a.178.178,0,0,0,0-.028c.011,0,.022,0,.031-.009s0,0,0,0c.058,0,.052-.046.075-.042.328.047.14-.151.525-.111.019,0,.027-.009.043-.025-.021.04-.021.107.018.115a.144.144,0,0,1,.067.031s0,.006,0,.006a.212.212,0,0,0-.054.015c-.06.042-.062-.1-.125-.069l-.017.014c-.025,0-.06.032-.053.06a.061.061,0,0,1,.04-.026c0,.006,0,.013,0,.014s0,.021.023.021.017-.006.026-.006.007,0,.007.008c0,.025-.079-.014-.064.057a.2.2,0,0,0,.012.022c0,.02.014.042.05.03-.007,0-.02-.014-.018-.025h.017s.006,0,.007-.011,0,0,0,0,.006,0,.006.006,0,.008,0,.014a.088.088,0,0,0,.006.023.04.04,0,0,0,.068.027c-.01,0-.032-.006-.035-.019a.068.068,0,0,1,.016-.008c.006,0,.008-.014.008-.026s0-.006.007-.006l.016,0a.01.01,0,0,1,.012.006.038.038,0,0,0,.049.022c.042-.016.007-.056.041-.064a.041.041,0,0,1,.025,0c.033.009.084.007.092-.01a.1.1,0,0,0-.031-.1c-.021-.011,0-.039-.019-.072a.308.308,0,0,0,.126.033.221.221,0,0,0,.156-.042.143.143,0,0,1,.111-.012c.012,0,.022.008.019.025-.011.051,0,.056-.006.078s-.049,0-.075,0a.03.03,0,0,0-.028.015.058.058,0,0,0-.049.055.092.092,0,0,1,.042-.023.034.034,0,0,0,0,.01c0,.035.039.048.059.023,0,0,.012,0,.008,0-.019.015-.053.05-.024.062l.016.009a.045.045,0,0,0,.03.046c-.006-.011-.008-.019,0-.041h.016c.02,0,.011-.044.034-.056,0,0,0,0,0,0-.008.025-.012.055.009.063l.016,0a.036.036,0,0,0,.056.018.055.055,0,0,1-.025-.021.069.069,0,0,0,.014-.023c.015-.053-.027-.054-.027-.075s.049-.01.049-.064a.035.035,0,0,0-.022-.032s0,0,0,0h0c.014,0,.028,0,.035-.016-.037,0-.024-.03-.03-.052,0,0,0-.007,0-.009a.061.061,0,0,0,.016-.057c-.012.019-.052.04-.055,0,0,0,0-.028-.04-.021a1.167,1.167,0,0,1-.218-.019c.115-.008.324-.034.324-.116M12.4,12.06a.381.381,0,0,0,.079.034c-.036.007-.028.021-.051.021s-.031-.033-.027-.054m-.048-.027c-.011.018-.033.035-.05.016s0-.022-.019-.058a.294.294,0,0,0,.069.042m-.074.173c.006-.015.011-.026.019-.026s.021,0,.026-.017-.009-.025-.023-.034c.014,0,.022-.012.014-.02s-.024.006-.028,0,.009-.013.013-.017.012-.005.02,0l.064.032a.019.019,0,0,1,.012.018c0,.006,0,.021,0,.022s-.006-.021-.019-.022-.008.008,0,.024c-.015-.005-.03-.013-.037,0a.027.027,0,0,0,.005.034c0,.007,0,.019,0,.034s-.024.037-.045.026a.04.04,0,0,1-.013-.055" transform="translate(-1.435 -1.464)" fill="#fff" fill-rule="evenodd"/><path d="M17.139,13.983a.007.007,0,0,1,0-.008.061.061,0,0,0,.021-.058c-.013.02-.055.041-.056,0,0,0,0-.028-.037-.02a1.366,1.366,0,0,1-.234-.017c-.007,0-.013-.007,0-.009.115-.01.326-.028.326-.108s-.069-.108-.269-.108-.817.079-.817-.042c0-.076.207-.045.361-.04a.076.076,0,0,0,.044.029c.259.079.553-.128.709-.08-.2-.076-.331.055-.526.012.114,0,.235-.026.241-.058-.089.061-.339-.043-.445.028a.1.1,0,0,0-.018.015c-.19,0-.421-.027-.421.093,0,.215.7.09.869.09s.206.019.206.052c0,.052-.167.065-.263.065a4.435,4.435,0,0,0-1.074-.008c.014-.048.079-.12.049-.157a.066.066,0,0,0,.042-.055.088.088,0,0,0-.049-.025c.008-.013,0-.026-.012-.036s-.008-.032-.014-.037a.238.238,0,0,0-.059-.044.166.166,0,0,0-.06-.017.227.227,0,0,0-.036.005c-.014,0-.031,0-.034.016a.081.081,0,0,0-.047-.022.11.11,0,0,0-.006.077c-.025,0-.049.065-.072.058.009.019.016.026.023.028-.019.038-.028.084-.051.085.014.021.025.031.034.032,0,.022,0,.045-.006.064l-.034-.012-.032,0-.032-.007c-.032,0-.057-.058-.11-.092s-.04-.045-.04-.09.016-.07.014-.1a.188.188,0,0,0-.01-.033.053.053,0,0,0-.053-.038.049.049,0,0,1,.021.038c-.008.008-.015.018-.017.02a.034.034,0,0,0,0,.038.007.007,0,0,1,0,.007.049.049,0,0,1,0,.017c0,.008,0,0,0,0-.007-.026-.02-.065-.042-.067h-.018a.008.008,0,0,0,0-.005c0-.027-.028-.049-.058-.016.007,0,.02,0,.025.012s-.007.026-.008.028c0,.028.018.039.046.039a.008.008,0,0,1,.009.006.067.067,0,0,1,0,.011c0,.006,0,0,0,0-.045-.022-.065,0-.066.023a.079.079,0,0,0,0,.019c-.016.012-.019.039.01.058,0-.008,0-.027.01-.031h.006a.108.108,0,0,0,.013.01s.011,0,.027-.009a.014.014,0,0,1,.011,0,.046.046,0,0,0,.013.009s0,.007,0,.009c-.031.032-.026.065.015.072,0,0,.006,0,.006.009,0,.061-.078.048-.075-.012a.062.062,0,0,0,.087.087s.006,0,.007,0,.008.022.018.022a.013.013,0,0,1,.013-.012s0,0,0,.006.007.037.027.04c0-.014,0-.024.007-.024s.047.088.13.137c0-.008.031-.022.048-.033a.052.052,0,0,0,.028.039l.014-.007c0,.04.04.083.032.083a.322.322,0,0,0-.115,0c-.037.023-.131.058-.158.018-.009-.017-.006-.028-.018-.05a.047.047,0,0,0-.03-.026h-.022a.052.052,0,0,0-.062-.008.046.046,0,0,1,.034.025c0,.008-.009.017-.009.019s0,.035.055.056c0,0,.009.006,0,.009a.026.026,0,0,1-.033,0c-.023-.018-.026-.046-.054-.029l-.019.009h0c-.026,0-.065.032-.048.065a.042.042,0,0,1,.032-.03l0,.019c.006.034.018.058.08.014.007,0,.007,0,0,0-.013.028-.056.056-.023.076l.013.012a.031.031,0,0,0,0,.007.056.056,0,0,0,.051.062.07.07,0,0,1-.021-.055c.009,0,.016.007.019.006.029-.013.016-.051.033-.063s.007,0,.008,0,.008.051.044.047a.047.047,0,0,0,.045-.052s0,0,0,0a.04.04,0,0,1,.016.041.074.074,0,0,0,.026-.027.062.062,0,0,1-.015.066.091.091,0,0,0,.057-.065.062.062,0,0,1,.013.02s0,0,0,0a.112.112,0,0,0,.069,0s.005,0,0,0a.055.055,0,0,0,0,.038s.009-.02.014-.02,0,.037.02.061c.008-.1.056-.058.112-.1.007,0,.007,0,.006,0a.06.06,0,0,1-.026.031c.021.017.1-.038.1-.073,0-.009.031-.012.058-.018.057,0,.049-.046.072-.043.329.048.14-.151.526-.11.018,0,.028-.023.043-.039-.02.039-.021.121.018.129a.147.147,0,0,1,.066.029s0,.006,0,.008a.174.174,0,0,0-.055.015c-.058.042-.06-.1-.124-.071a.11.11,0,0,0-.017.016.059.059,0,0,0-.054.06A.062.062,0,0,1,16.3,14.1v.014c0,.012,0,.023.024.023s.016-.006.024-.006a.007.007,0,0,1,.007.007c0,.026-.079-.013-.065.056a.169.169,0,0,0,.013.023c0,.021.013.042.048.03-.006-.006-.02-.016-.016-.026l.015,0s.007,0,.009-.011,0,0,0,0a.007.007,0,0,1,.006.006s-.005.008,0,.015a.064.064,0,0,0,.006.023.039.039,0,0,0,.067.027c-.01,0-.032-.006-.036-.018l.018-.009a.033.033,0,0,0,.007-.025c0-.007,0-.007.005-.007h.018a.01.01,0,0,1,.011,0,.039.039,0,0,0,.049.022c.043-.016.007-.055.042-.064a.061.061,0,0,1,.026,0c.032.009.081.008.091-.009a.1.1,0,0,0-.032-.1c-.021-.011,0-.04-.018-.073a.289.289,0,0,0,.125.033.254.254,0,0,0,.165-.041.14.14,0,0,1,.112-.012.017.017,0,0,1,.015.024c-.014.051,0,.056-.012.08s-.049,0-.077,0a.037.037,0,0,0-.028.014.067.067,0,0,0-.053.055.093.093,0,0,1,.044-.023v.01a.032.032,0,0,0,.057.024s.011,0,.006,0c-.02.015-.057.048-.028.061l.015.009a.041.041,0,0,0,.026.047c0-.012-.006-.019.005-.042h.016c.02,0,.014-.043.039-.056,0,0,0,0,0,0-.01.025-.017.056,0,.063l.016,0a.035.035,0,0,0,.055.018c-.006,0-.02-.011-.023-.021a.152.152,0,0,0,.017-.024c.019-.053-.023-.054-.021-.075s.048-.009.053-.063a.029.029,0,0,0-.018-.031s0,0,0,0h0c.014,0,.027,0,.037-.016-.037,0-.024-.031-.028-.052Zm-1.445-.4a.312.312,0,0,0,.079.034c-.036.009-.028.023-.05.023s-.033-.034-.029-.056Zm-.048-.027c-.011.021-.032.036-.05.018s0-.023-.019-.058a.341.341,0,0,0,.069.04Zm-.075.174c.007-.015.014-.027.021-.027s.021,0,.026-.017-.009-.024-.023-.033c.015,0,.023-.012.014-.019s-.023.006-.025,0,.007-.014.012-.019.011,0,.02,0l.064.032c.007.006.012.009.012.019s0,.02,0,.022-.007-.02-.017-.023-.01.009,0,.025c-.016-.006-.03-.015-.038,0a.028.028,0,0,0,.006.034c0,.006,0,.018-.005.035s-.023.035-.044.023a.04.04,0,0,1-.014-.054Z" transform="translate(-1.852 -1.653)" fill="#fff" fill-rule="evenodd"/><path d="M16.233,14.6a.069.069,0,0,0,.045.038c.246.083.527-.134.675-.084-.194-.08-.315.057-.5.013.109,0,.224-.028.23-.063-.085.066-.324-.041-.425.031a.1.1,0,0,0-.015.014c-.135,0-.245,0-.245.1,0,.223.511.092.672.092s.141.02.141.056c0,.053-.183.066-.274.066a3.472,3.472,0,0,0-.81-.025c.02-.048.066-.111.041-.146a.068.068,0,0,0,.039-.057.078.078,0,0,0-.047-.025c.008-.013,0-.029-.01-.04s-.008-.033-.014-.038a.21.21,0,0,0-.056-.044.143.143,0,0,0-.057-.019c-.006,0-.031.006-.035,0s-.029,0-.032.018a.067.067,0,0,0-.043-.022.125.125,0,0,0-.008.08c-.022,0-.046.07-.067.062.008.019.014.027.021.029-.019.04-.027.087-.048.09a.114.114,0,0,0,.019.025.451.451,0,0,0-.013.084l-.022-.009h-.01a.164.164,0,0,1-.1-.034c-.038-.025-.039-.048-.039-.093s.016-.074.013-.11a.237.237,0,0,0-.008-.035c-.008-.024-.036-.044-.052-.038a.054.054,0,0,1,.021.038.192.192,0,0,0-.014.02.03.03,0,0,0,0,.04.011.011,0,0,1,0,.009s0,.009,0,.018,0,0,0,0c-.009-.028-.019-.069-.041-.069a.06.06,0,0,0-.015,0s0,0,0,0c0-.029-.026-.052-.055-.018.006,0,.017,0,.023.013a.255.255,0,0,0-.007.029c0,.03.018.04.044.041a.007.007,0,0,1,.008.006.061.061,0,0,1,0,.012c0,.005,0,0,0,0-.043-.021-.061,0-.063.024a.062.062,0,0,0,0,.021.035.035,0,0,0,.009.059c0-.009,0-.027.009-.03l.007,0c0,.006.01.011.011.013s.011,0,.025-.01a.007.007,0,0,1,.01,0,.141.141,0,0,0,.013.011s0,.005,0,.008c-.029.033-.025.067.013.074.005,0,.006.006.006.012,0,.062-.074.05-.071-.013-.038.072.031.126.084.09,0,0,0,0,0,0s.009.023.018.024,0-.014.011-.014,0,0,0,.006.005.037.026.041c0-.012,0-.025.007-.025s.009-.028.074.015a.049.049,0,0,0,.024.029l.048-.01c-.006.043.006.109,0,.109a.281.281,0,0,0-.111.006c-.035.023-.123.06-.149.018-.009-.015-.006-.03-.017-.051s-.021-.026-.029-.026H15.1a.047.047,0,0,0-.061-.009.043.043,0,0,1,.034.026.145.145,0,0,0-.009.02c-.007.014,0,.036.053.059,0,0,.007.007,0,.01a.026.026,0,0,1-.031,0c-.022-.021-.024-.048-.05-.031l-.019.009s0,0-.007,0c-.024,0-.06.034-.043.067a.042.042,0,0,1,.03-.03l.005.02c.006.035.018.061.076.014.007,0,.007,0,.006,0-.015.03-.052.058-.023.08a.08.08,0,0,0,.013.011.016.016,0,0,0,0,.007.057.057,0,0,0,.049.064.074.074,0,0,1-.019-.057.072.072,0,0,0,.018.006c.028-.013.014-.052.03-.065s.006,0,.006,0,.009.052.043.049a.049.049,0,0,0,.043-.055s0,0,0,0a.043.043,0,0,1,.016.042.089.089,0,0,0,.024-.029.068.068,0,0,1-.014.069.089.089,0,0,0,.054-.067.062.062,0,0,1,.013.021l0,0a.1.1,0,0,0,.065,0s0,0,0,0a.047.047,0,0,0,0,.041c0-.006.009-.022.014-.022s0,.04.019.062c.008-.1.075-.074.129-.114.005,0,.006,0,.005,0a.059.059,0,0,1-.023.032c.056.041.116-.05.133-.1a.063.063,0,0,0,.015-.019.022.022,0,0,1-.009.03c.055,0,.049-.047.071-.045.167.016.039-.164.307-.109a.1.1,0,0,0,.066-.034c-.019.041-.021.127.017.134a.148.148,0,0,1,.064.031s0,.007,0,.008a.111.111,0,0,0-.052.016c-.056.043-.058-.1-.118-.073a.052.052,0,0,0-.017.013.06.06,0,0,0-.051.062.066.066,0,0,1,.039-.026c0,.007,0,.014,0,.016s0,.023.023.023.015-.008.024-.008.007,0,.007.009c0,.026-.074-.015-.061.059a.076.076,0,0,0,.012.021c0,.023.014.046.046.033-.006,0-.018-.016-.016-.027a.05.05,0,0,0,.015,0s.006,0,.007-.011,0,0,0,0,.007,0,.007.007,0,.008,0,.015a.08.08,0,0,0,.006.024.038.038,0,0,0,.064.029c-.01,0-.031-.007-.034-.021l.016-.008a.038.038,0,0,0,.007-.026c0-.006,0-.006.007-.006l.015,0a.01.01,0,0,1,.012,0,.036.036,0,0,0,.047.024c.041-.018.005-.059.038-.066a.037.037,0,0,1,.025,0c.031.008.079.007.087-.009a.111.111,0,0,0-.031-.11c-.02-.01,0-.04-.017-.075a.241.241,0,0,0,.119.035.278.278,0,0,0,.172-.042.128.128,0,0,1,.108-.013c.01,0,.018.009.01.026-.02.053-.008.059-.022.081s-.047.005-.073,0a.042.042,0,0,0-.028.013.083.083,0,0,0-.059.059.093.093,0,0,1,.045-.024s0,.011,0,.012c0,.036.026.048.051.023,0,0,.011,0,.006.006-.021.017-.061.05-.038.064l.016.009c-.008.021,0,.046.016.048,0-.012,0-.02.012-.043h.016c.019,0,.02-.047.046-.06,0,0,0,0,0,0-.014.026-.024.058-.006.065l.014,0c0,.02.02.034.051.018-.006,0-.02-.012-.02-.021l.02-.024c.025-.056-.015-.056-.01-.079s.048-.008.061-.064c0-.01,0-.027-.013-.034s0,0,0,0h0c.014,0,.026,0,.038-.019-.036,0-.017-.031-.017-.052a.012.012,0,0,1,0-.01.071.071,0,0,0,.028-.059c-.014.019-.057.04-.054,0,0,0,0-.027-.032-.021a1.48,1.48,0,0,1-.251-.019c-.007,0-.012-.006,0-.009.109-.009.333-.028.333-.111,0-.068-.011-.113-.2-.113s-.621.083-.621-.043c0-.061.083-.056.184-.049m-.621-.015c-.011.02-.031.036-.048.017s0-.025-.017-.061a.3.3,0,0,0,.065.044m.038.135c-.006,0-.006-.021-.017-.024s-.009.009,0,.025c-.014-.006-.027-.015-.035,0a.031.031,0,0,0,.006.035c0,.007,0,.02,0,.035s-.022.038-.043.025a.045.045,0,0,1-.013-.055c.007-.016.013-.026.02-.026s.02,0,.025-.018-.008-.026-.022-.037c.014,0,.021-.012.014-.019s-.023.006-.025,0,.006-.014.012-.019.011-.006.018,0l.061.033c.007,0,.012.008.011.019s0,.021,0,.024m.033-.05c-.022,0-.03-.035-.026-.059a.269.269,0,0,0,.074.036c-.034.008-.026.024-.048.023" transform="translate(-1.845 -1.783)" fill="#fff" fill-rule="evenodd"/><path d="M16.028,15.6a.066.066,0,0,0,.045.034c.246.071.526-.119.677-.076-.194-.07-.317.053-.5.012.109,0,.224-.023.23-.053-.085.057-.324-.04-.425.024a.09.09,0,0,0-.019.019c-.075.017-.14.06-.14.117,0,.168.629.035.629.092s-.123.087-.288.087a1.653,1.653,0,0,0-.615-.015v0c.02-.048.077-.12.051-.151a.056.056,0,0,0,.038-.047.071.071,0,0,0-.043-.021c.006-.014,0-.024-.012-.035s-.007-.027-.013-.032a.207.207,0,0,0-.053-.037.256.256,0,0,0-.055-.017.141.141,0,0,0-.032.007c-.012,0-.028,0-.03.013a.078.078,0,0,0-.04-.019.086.086,0,0,0-.007.069c-.022,0-.043.058-.064.051.008.016.014.023.021.024-.018.035-.026.074-.046.076a.109.109,0,0,0,.023.024.473.473,0,0,0-.011.16,1.135,1.135,0,0,0-.135-.16c-.036-.023-.037-.041-.037-.078s.015-.062.012-.092a.231.231,0,0,0-.008-.03.049.049,0,0,0-.049-.032.043.043,0,0,1,.02.033.084.084,0,0,0-.014.017.023.023,0,0,0,0,.033.008.008,0,0,1,0,.007.042.042,0,0,1,0,.015c0,.007,0,0,0,0-.007-.023-.018-.057-.038-.058h-.015a.012.012,0,0,0,0-.005c0-.024-.025-.042-.053-.014.006,0,.018,0,.021.01a.153.153,0,0,0-.006.025c0,.023.016.034.041.034,0,0,.008,0,.008,0s0,.007,0,.011,0,0,0,0c-.042-.017-.06,0-.061.02a.068.068,0,0,0,0,.018c-.014.011-.018.032.009.051,0-.009,0-.023.009-.027l.006,0,.011.011s.01,0,.025-.009,0,0,.008,0l.013.009s0,.006,0,.007c-.028.028-.022.055.013.062a.007.007,0,0,1,.007.008c0,.053-.07.043-.067-.011a.055.055,0,0,0,.078.077s.005,0,.006,0,.007.017.017.019a.011.011,0,0,1,.01-.012s0,0,0,.006,0,.032.024.035c0-.011,0-.022.005-.022s0,.082.072.126a.083.083,0,0,0,.088.065c.012.032.031.062.025.062a.4.4,0,0,0-.121,0,.236.236,0,0,1-.08.029l0,.006,0-.006a.061.061,0,0,1-.06-.014c-.008-.013-.006-.025-.016-.044a.047.047,0,0,0-.027-.022h-.021a.048.048,0,0,0-.056-.006.039.039,0,0,1,.031.022l-.007.018c-.008.012,0,.03.05.049,0,0,.008.006,0,.007a.023.023,0,0,1-.029,0c-.021-.017-.024-.04-.049-.026L15,16.132l-.007,0c-.023,0-.059.028-.042.057a.041.041,0,0,1,.028-.026.066.066,0,0,0,.006.017c0,.028.016.051.07.012.007,0,.007,0,0,0-.013.023-.05.047-.02.067l.012.008a.011.011,0,0,0,0,.007.05.05,0,0,0,.046.055.054.054,0,0,1-.017-.049.041.041,0,0,0,.017,0c.025-.011.013-.045.028-.055s.006,0,.006,0,.008.044.041.042a.044.044,0,0,0,.041-.046s0,0,0,0a.031.031,0,0,1,.016.035.061.061,0,0,0,.023-.023.045.045,0,0,1-.013.055.072.072,0,0,0,.051-.054.031.031,0,0,1,.011.018s0,0,0,0a.088.088,0,0,0,.063,0,0,0,0,0,1,.006,0,.039.039,0,0,0,0,.034s.009-.018.014-.018,0,.032.018.051c.008-.082.05-.05.1-.084.006,0,.007,0,.005,0a.061.061,0,0,1-.023.027c.02,0,.076-.026.076-.056a.38.38,0,0,0,.047-.143.11.11,0,0,0,.02,0c.067-.005.1-.056.164-.059a.18.18,0,0,0-.02.1c0,.038.047.08.061.091s0,.006,0,.007a.132.132,0,0,0-.049.014c-.054.037-.055-.084-.112-.062a.113.113,0,0,0-.016.013c-.024,0-.054.027-.049.052a.062.062,0,0,1,.036-.022v.012c0,.01,0,.019.022.019s.014-.006.022-.006a.007.007,0,0,1,.007.007c0,.023-.072-.013-.058.05a.2.2,0,0,0,.009.019c0,.018.014.037.045.027-.007-.005-.018-.013-.015-.024l.014,0s.006,0,.009-.01,0,0,0,0,.006,0,.006.006,0,.007,0,.014a.055.055,0,0,0,.006.018c0,.023.028.047.061.023-.009,0-.029,0-.031-.015l.016-.007a.028.028,0,0,0,.007-.021c0-.007,0-.007.006-.007h.015c.006,0,.009,0,.01.006a.035.035,0,0,0,.044.017c.038-.013.007-.048.037-.056a.067.067,0,0,1,.024,0c.03.008.053.014.062,0a.091.091,0,0,0-.029-.092c-.02-.01.028-.135-.065-.193.044.011.183.031.206,0a.234.234,0,0,1,.1.048c.006.009.009.019,0,.026-.037.023-.031.036-.051.044l0,0a.211.211,0,0,0-.037-.039.026.026,0,0,0-.029,0,.05.05,0,0,0-.058.024.075.075,0,0,1,.042,0,.046.046,0,0,0,0,.01c0,.007,0,.014.008.02h0l0,0s0,.006,0,.006c-.021,0-.062-.006-.052.019,0,0,0,.01,0,.016a.039.039,0,0,0-.009.049c0-.01.007-.016.026-.024s.009.011.01.013.033-.021.055-.013c0,0,0,0,0,0-.021.009-.042.024-.033.043a.1.1,0,0,0,.006.014.037.037,0,0,0,.025.049.049.049,0,0,1,0-.031l.023,0c.042-.023.015-.051.029-.064s.035.026.068-.005a.032.032,0,0,0,.006-.033s0,0,0,0h0c.009.009.016.02.033.012-.025-.023,0-.033.013-.051s0,0,.007,0,.028,0,.045-.024c-.019,0-.066-.025-.037-.037s.05-.04.031-.063c-.033-.045-.1-.049-.1-.1h.062c.214,0,.348-.061.344-.131-.007-.149-.642.013-.642-.1,0-.033.039-.057.089-.075m-.461.022a.265.265,0,0,0,.071.029c-.033.007-.025.02-.046.019s-.029-.029-.025-.048m-.042-.023c-.01.016-.03.03-.046.014s0-.02-.017-.05a.269.269,0,0,0,.063.036m-.068.151c.006-.013.012-.023.018-.023s.02,0,.023-.014-.008-.022-.02-.029c.013-.005.02-.011.013-.018s-.022,0-.024,0,.007-.013.01-.017.012,0,.019,0l.057.029c.007,0,.011.008.011.016s0,.018,0,.02,0-.019-.015-.02-.009.007,0,.021c-.014,0-.027-.012-.033,0a.021.021,0,0,0,0,.029c0,.006,0,.017,0,.03s-.021.034-.041.022a.033.033,0,0,1-.012-.047" transform="translate(-1.842 -1.91)" fill="#fff" fill-rule="evenodd"/><path d="M4.4,2.956a.154.154,0,1,0-.155.154A.154.154,0,0,0,4.4,2.956" transform="translate(-0.505 -0.345)" fill="#fff" fill-rule="evenodd"/><path d="M4.34,2.488a.154.154,0,1,0-.155.154.155.155,0,0,0,.155-.154" transform="translate(-0.497 -0.288)" fill="#fff" fill-rule="evenodd"/><path d="M4.461,2.259a.154.154,0,1,0-.153-.154.154.154,0,0,0,.153.154" transform="translate(-0.531 -0.24)" fill="#fff" fill-rule="evenodd"/><path d="M4.929,2.228a.154.154,0,1,0-.153-.154.154.154,0,0,0,.153.154" transform="translate(-0.589 -0.237)" fill="#fff" fill-rule="evenodd"/><path d="M6.939,1.91a.154.154,0,1,0,0-.218.154.154,0,0,0,0,.218" transform="translate(-0.85 -0.203)" fill="#fff" fill-rule="evenodd"/><path d="M6.87,1.536a.154.154,0,1,0-.218,0,.153.153,0,0,0,.218,0" transform="translate(-0.814 -0.157)" fill="#fff" fill-rule="evenodd"/><path d="M6.4,1.46a.154.154,0,1,0-.218,0,.155.155,0,0,0,.218,0" transform="translate(-0.757 -0.147)" fill="#fff" fill-rule="evenodd"/><path d="M6.007,1.755a.154.154,0,1,0-.218,0,.155.155,0,0,0,.218,0" transform="translate(-0.708 -0.184)" fill="#fff" fill-rule="evenodd"/><path d="M4.923,1.5l.124.269L5.2,1.582l.019.006a2.828,2.828,0,0,1,.019.335.2.2,0,1,0,.288-.173,1.538,1.538,0,0,1-.217-.2.1.1,0,0,0,.009-.025l.261.023-.1-.277-.195.166-.01-.006L5.26,1.144l-.269.1.18.212a.066.066,0,0,0-.011.022l-.236.02" transform="translate(-0.607 -0.141)" fill="#fff" fill-rule="evenodd"/><path d="M6.633,2.078a.4.4,0,0,1,.086.212.441.441,0,0,1-.16-.146L6.59,2.5a.311.311,0,0,1,.128-.129c-.013.233-.106.33-.185.346A.152.152,0,0,1,6.349,2.6c-.019-.1.071-.169.162-.076.017-.216-.157-.213-.233-.121a.314.314,0,0,0-.131-.457.334.334,0,0,0,.08.47c-.142-.072-.27.049-.143.208.027-.138.147-.107.175,0,.024.094-.066.216-.22.262-.221.068-.292-.074-.346-.194a.31.31,0,0,1,.288.06L5.875,2.4a.358.358,0,0,1-.211.213,1.111,1.111,0,0,1,.068-.307l-.424.173a1.083,1.083,0,0,1,.263.173.354.354,0,0,1-.3-.005l.169.326c.034-.145.108-.233.164-.244.045.124.092.275-.112.381a.26.26,0,0,1-.341-.035c-.057-.1.008-.2.123-.124-.019-.2-.2-.2-.247-.048,0-.209-.052-.334-.271-.393a.316.316,0,0,0,.226.419c-.119-.013-.245.1-.083.248,0-.131.11-.147.17-.059a.152.152,0,0,1-.049.213c-.068.044-.2.041-.375-.118a.316.316,0,0,1,.182,0L4.6,2.942a.438.438,0,0,1-.013.216A.4.4,0,0,1,4.5,2.946L4.326,3.1a1.983,1.983,0,0,1,.582.573,7.579,7.579,0,0,1,.941-.468,7.542,7.542,0,0,1,1-.321,1.99,1.99,0,0,1,.017-.815l-.232.01" transform="translate(-0.533 -0.24)" fill="#fff" fill-rule="evenodd"/><path d="M9.478,12c.061-.164-.242-.351-.277-.588a1.172,1.172,0,0,0-.276-.778c-.265-.309-1.188-1.294-1.465-1.609a.441.441,0,0,1,.4.117c.1.093.3.28.48.461a4.994,4.994,0,0,1,.977-1.571q.083-.093.169-.181a2.208,2.208,0,0,0-.545.181c-.011-.271.01-.49-.176-.662.071-.379.009-.836-.839-1.4.434.1.69.5,1.023.2-.3-.008-.3-.658-1.381-1.2.412-.009.732.656,1.207.279-.448-.053-.6-.85-1.405-1.1.28.031.569.169.809-.157-.279.066-.445-.193-.746-.216A1,1,0,0,0,7.4,2.955a1.038,1.038,0,0,0-.582.206c-.023-.192-.225-.2-.4-.189.009.083.049.2-.042.22a7.691,7.691,0,0,0-1,.3,5.4,5.4,0,0,0-.917.492c-.075.052-.14-.07-.186-.126-.131.111-.258.255-.163.4a1.156,1.156,0,0,0-.627.225.729.729,0,0,0,.495.6c-.5.5-.047.954-.486,1.387.617.023.51-.837.822-.957-.032.605-.369.712-.369,1.364,0,.349.207.727.021.956.517-.142.381-1.284.7-1.628a.96.96,0,0,1-.043.582c-.181.533.02,1.262-.261,1.5.527-.051.59-.9,1.024-1.208a26.466,26.466,0,0,1-1.312,3.2c-.9,1.212-1.427,2.691-2.252,2.691a.609.609,0,0,1-.638-.683c0-1.379,2.364-2.327,2.364-3.8a.873.873,0,0,0-.867-.9,1.213,1.213,0,0,0-.724.3.791.791,0,0,0-.279-.061c-.836,0-.613,1.5-1.342,1.488.288.162.787-.154,1.079-.574C1.3,9.713-.1,9.453.006,10.623c.2-.916,2.431-.782,2.431-2.171a.534.534,0,0,0-.192-.392.861.861,0,0,1,.472-.148.527.527,0,0,1,.511.593c0,1.231-2.35,2.269-2.35,3.78a1.065,1.065,0,0,0,.195.635A.391.391,0,0,1,.6,12.792c-.013.389.543.634.893.439a.936.936,0,0,0,.244.05.666.666,0,0,1-.654.362c.577.454,1.581-.142,1.526-.655a8.241,8.241,0,0,0,1.079-1.416c-.021.1-.039.192-.053.286a4.943,4.943,0,0,0-.741,1.97c-.074.676-.415,1.284-.89,1.284-.1,0-.276-.136-.356-.068-.148.127-.008.26-.008.386,0,.193-.37.384-.37.977,0,.268.155.587.1.764a1.083,1.083,0,0,0,.436-.659c.163.783-.335.75.024,1.445a.287.287,0,0,1,.415-.23c.141.1.075.164-.029.268s-.2.624.275.593c-.089-.059-.1-.2.14-.245.327-.066.423.084.771.084.215,0,.274-.281.445-.281s.17.133.111.23c.274-.074.325-.222.325-.378s-.126-.251-.029-.31.415.007.289.266a.307.307,0,0,0,.252-.348c0-.2-.229-.318-.444-.281-.037-.126-.223-.193-.393-.193-.386,0-.326.3-.591.3-.422,0-.833-.55-.833-1.477,0-.5.534-.623.913-.785a3.258,3.258,0,0,0,1.438-1.237,2.94,2.94,0,0,0,.281-1.77,1.12,1.12,0,0,1,.595,1.066.651.651,0,0,1-.383.659c-.144.066-.192.039-.207.124a.184.184,0,0,0,.114.2c.192.1.153.283.207.482a1.528,1.528,0,0,0,.53.744,2.185,2.185,0,0,0,0-.578c.41.2.082,1.024.877,1.024a.2.2,0,0,1-.024-.33c.085-.031.191.053.346.267s.112.2.489.2.207-.13.406-.13.184.23.077.4a.431.431,0,0,0,.324-.619.322.322,0,0,1,.5.228.4.4,0,0,0-.229-.668A.233.233,0,0,0,8.564,15a2.966,2.966,0,0,0-.375-.008c-.138.008-.215.207-.376.207-.5,0-1.485-.9-1.485-1.294s.943-.628.943-1.235c0-.792-.779-1.062-1.434-1.571a1.312,1.312,0,0,1,1.3-.135c.044-.221.186-.166.238-.547.139.335,0,.623.137.765.11-.161.393-.138.375-.552.086.259-.109.657.086.83.035-.213.161-.254.242-.254s.15.058.15.185c0,.316-.39.169-.39.526,0,.15.19.2.19.3a.21.21,0,0,1-.345.121.405.405,0,0,0,.351.259.505.505,0,0,0,.43-.317c.09.228.021.48-.142.513.172.085.581,0,.534-.519.231.039.352.195.215.474.19-.046.363-.139.363-.341,0-.155-.168-.2-.093-.4M5.011,4.859c-.216.02-.21-.187-.59-.279a6.452,6.452,0,0,0,.908-.3c.057.248-.046.557-.318.582M6.538,6.477a.421.421,0,0,1-.546-.289c-.054-.167-.1-.3-.034-.367.12-.119.158-.21.085-.358-.083-.17-.264-.09-.458-.042.09-.163.1-.279-.026-.264-.147.017-.15.255-.231.227s-.036-.165-.036-.239c0-.1.066-.137.168-.182l.8-.3c.1-.038.175-.057.247.015.051.052.18.118.14.2s-.207-.092-.324,0c-.1.076-.013.153.166.207-.173.1-.358.168-.3.35.051.155.141.195.309.2.09,0,.155.131.231.288a.4.4,0,0,1-.195.569M6.586,4.24c-.215.169-.5.014-.63-.206a6.6,6.6,0,0,0,.87-.4c-.214.328-.068.474-.24.608" transform="translate(0 -0.364)" fill="#fff" fill-rule="evenodd"/><path d="M27.992,17.511a.665.665,0,1,0,.666-.665.666.666,0,0,0-.666.665m.17,0a.494.494,0,1,1,.5.494.5.5,0,0,1-.5-.494" transform="translate(-3.45 -2.076)" fill="#fff" fill-rule="evenodd"/><path d="M25.141,18.292a.393.393,0,0,0-.164.251.4.4,0,0,0,.1.339.6.6,0,0,0,.707.13A.4.4,0,0,0,26,18.73a.487.487,0,0,0-.435-.522.558.558,0,0,0-.422.083m.3.6c-.19-.035-.324-.179-.3-.32a.223.223,0,0,1,.094-.141.4.4,0,0,1,.294-.054.338.338,0,0,1,.3.287c0,.011,0,.022,0,.034a.314.314,0,0,1-.389.194" transform="translate(-3.078 -2.243)" fill="#fff" fill-rule="evenodd"/><path d="M20.962,7.657a.464.464,0,0,0-.136.621h0a.431.431,0,0,0,.615.019.537.537,0,0,0,.2-.348.375.375,0,0,0-.068-.272.345.345,0,0,0-.236-.135.508.508,0,0,0-.378.115m-.037.4a.355.355,0,0,1,.141-.262.345.345,0,0,1,.252-.08.178.178,0,0,1,.124.069.193.193,0,0,1,.033.142.366.366,0,0,1-.138.232.273.273,0,0,1-.377.012.187.187,0,0,1-.035-.112" transform="translate(-2.558 -0.929)" fill="#fff" fill-rule="evenodd"/><path d="M24.256,17.027a.569.569,0,0,0-.167.4v.014a.554.554,0,0,0,.153.391.394.394,0,0,0,.275.123.406.406,0,0,0,.282-.112.568.568,0,0,0,.167-.4.58.58,0,0,0-.114-.361.391.391,0,0,0-.6-.053m.265.754h0a.218.218,0,0,1-.152-.069.4.4,0,0,1-.1-.284.383.383,0,0,1,.113-.278.217.217,0,0,1,.157-.066c.145,0,.259.162.255.354a.39.39,0,0,1-.114.279.218.218,0,0,1-.155.064" transform="translate(-2.969 -2.085)" fill="#fff" fill-rule="evenodd"/><path d="M20.53,10.916a.392.392,0,0,0-.224.193.48.48,0,0,0,.283.609.565.565,0,0,0,.429.034.381.381,0,0,0,.224-.193.388.388,0,0,0,.011-.3.6.6,0,0,0-.723-.348m.133.65a.313.313,0,0,1-.2-.382.21.21,0,0,1,.126-.107.4.4,0,0,1,.3.027.407.407,0,0,1,.208.217.217.217,0,0,1,0,.166.221.221,0,0,1-.126.106.408.408,0,0,1-.3-.027" transform="translate(-2.498 -1.342)" fill="#fff" fill-rule="evenodd"/><path d="M27.284,8.972c.216.593.646.807.975.654-.734-.085-.139-1.339-1.083-1.339a.717.717,0,0,0-.152.016.768.768,0,0,0-.614-.24,1.171,1.171,0,0,0-1.087,1.182c0,1.714,1.991,1.866,1.991,3.381a.694.694,0,0,1-.709.718c-.334,0-.6-.376-.885-.964a7.418,7.418,0,0,0-.731-1.063.533.533,0,0,0,.3.1.376.376,0,0,0,.277-.1.382.382,0,0,0,.117-.269v-.015a.593.593,0,0,0-.552-.571.372.372,0,0,0-.393.37v.015a.505.505,0,0,0,.032.175,3.62,3.62,0,0,1-.827-1.41,1.364,1.364,0,0,1,.41-.779l.077.044.06-.067c.08-.088.247-.27.591-.639l.02-.022h0l.083-.087-.213-.172a2.659,2.659,0,0,0,.143-.42c.066.275.207.45.4.395-.129-.285.131-.666-.04-1.362.163.269.4.411.566.361-.441-.391.131-.936-.444-1.782a.338.338,0,0,0,.4-.067c-.524-.073-.285-.742-1.2-.981.229-.04.363-.174.329-.295-.243.175-.456-.326-1.254-.314a1.163,1.163,0,0,0-.638-.763,1.034,1.034,0,0,1-.056.612l-2.6-2.55c-.075-.071-.118-.088-.138-.062s-.019.073.029.125l2.229,2.8c-.168.058-.333.128-.506.192a.3.3,0,0,0-.194.289,4.7,4.7,0,0,0-.957.625c-.138.125-.247.155-.126.436.047.106-.1.371.226.177.212-.127.692-.392.763-.225.038.087-.2.2-.363.262s-.339.189-.313.251.155,0,.163.062a.146.146,0,0,0,.126.14c.064,0,.148-.136.2-.091s-.026.35-.078.428a.506.506,0,0,0,.422-.459c.006-.189.058-.234.1-.26s.085.2.033.337c.134-.028.272-.2.253-.529a.364.364,0,0,1,.187-.094c.085,0,.253.233.493.233a.735.735,0,0,0,.712-.525.487.487,0,0,0-.063-.368.609.609,0,0,1,.209.475c0,.626-1.1.92-1.559,1.352-.017.015-.033.031-.05.046l-.519-.2-.035.114c0,.007-.007.027-.031.1-.054.178-.167.548-.236.761,0,0-.028.086-.028.086l.046.027a2.872,2.872,0,0,0-.611,1.338,4.524,4.524,0,0,0-.378-.345.618.618,0,0,0,.028-.144.511.511,0,0,0-.119-.366.336.336,0,0,0-.492-.027.34.34,0,0,0-.045.048l-.055-.043a4.336,4.336,0,0,1-.512-.43.262.262,0,0,0-.226-.093c-.044,0-.154-.005-.231-.005s-.121.059-.209.137c-.041.036-.161.13-.295.232q.1.1.189.2c.033.038.066.077.1.116l.09-.07a.282.282,0,0,1,.417.093c.047.071.467.622.815,1.005-.039.013-.076.027-.11.041a1.841,1.841,0,0,1-.633.038c-.15-.012-.178-.05-.28.11a1.984,1.984,0,0,1-.138.192c-.05.061-.089.13.017.308.153.259.533.941.66,1.249a.72.72,0,0,0,.517.456,3.825,3.825,0,0,1,.7.391l.016-.236a1.45,1.45,0,0,0-.39-.19c-.087-.032-.111-.07-.005-.07a2.619,2.619,0,0,1,.6.188,1.771,1.771,0,0,0-.414-.627.563.563,0,0,0-.423.005.1.1,0,0,1-.1.11.092.092,0,0,1-.093-.121c.022-.07.127-.093.1-.225s-.186-.154-.292-.166c-.148-.214-.319-.527-.4-.654s-.031-.2.022-.242c.127-.1.391.055.918.088.183.011.416.023.654.034a1.454,1.454,0,0,0,1.169,1.408,1.441,1.441,0,0,1,.994.809c-1.7-.03-1.971.634-1.971,1.261,0,.712.6.672.6,1.207,0,.465-1.433.658-1.865.722a1.2,1.2,0,0,0-.752.312c-.175.176-.354.346-.675.665a1.091,1.091,0,0,0,.273.024l.242-.313c.071-.1.121-.192.168-.184s.016.088-.041.2l-.2.335c.841.057.9-.255.9-.383s-.208-.216-.087-.3.223-.025.32.087.128.208.36.12c0,0,1.833-.759,2.064-.865.208-.094.149-.184.024-.288a.6.6,0,0,1-.16-.488c0-.555.334-.726.93-.715a2.149,2.149,0,0,0-.019.267c0,.866,1.309,1.712,1.663,1.712.157,0,.37-.117.384.4a5.074,5.074,0,0,1,.018,1.1.818.818,0,0,1-.463.7c-.266.187-.518.773-.63.9.118.077.246.088.344-.2a.861.861,0,0,1,.278-.461c-.1.26-.18.642-.229.757.335.058.876-.247.876-.482s-.187-.217-.187-.374a.18.18,0,0,1,.187-.147.273.273,0,0,1,.246.157c.148-.079.241-.226.236-.571,0-.134-.008-.275-.015-.419a.4.4,0,0,0,.03.055.39.39,0,0,0,.3.17.582.582,0,0,0,.365-.1.565.565,0,0,0,.25-.351A.384.384,0,0,0,26.9,16.2a.365.365,0,0,0-.06-.205.381.381,0,0,0-.245-.162.6.6,0,0,0-.665.412c-.027-.47-.061-.915-.048-1.094.02-.265.03-.382-.06-.422s-.186.109-.313.109A.858.858,0,0,1,25,14.112c0-.375.4-.857.384-1.369-.007-.159.093-.243.157-.1a2.307,2.307,0,0,0,.367.6c-.107.644.6,1.272,1.184.806-.288.042-.486-.214-.614-.471a.857.857,0,0,0,.156.014c.029,0,.059,0,.087,0a.627.627,0,0,0,1.022-.4.667.667,0,0,1-.517.21,1.04,1.04,0,0,0,.372-.835c0-1.633-1.981-1.824-1.981-3.31a.912.912,0,0,1,.817-.906.5.5,0,0,1,.308.1.742.742,0,0,0-.186.567c.052,1.174,1.97,1.116,1.994,1.68.215-.851-1.214-.588-1.266-1.734Zm-5.1-4.5c.093-.178,0-.448.324-.448.159,0,.3.159.494.221a1.97,1.97,0,0,0-.819.226Zm-1.752,3.6a.342.342,0,0,1-.1.234.178.178,0,0,1-.127.05c-.111-.007-.2-.134-.2-.284,0-.008,0-.016,0-.023a.334.334,0,0,1,.1-.233.167.167,0,0,1,.251.014.338.338,0,0,1,.075.243Zm5.663,8.246a.407.407,0,0,1,.177-.244A.4.4,0,0,1,26.563,16a.224.224,0,0,1,.139.09h0a.21.21,0,0,1,.027.161.4.4,0,0,1-.177.243.315.315,0,0,1-.433-.023.215.215,0,0,1-.027-.162ZM24.9,10.84a.209.209,0,0,1,.063-.151.216.216,0,0,1,.156-.055.411.411,0,0,1,.271.132.406.406,0,0,1,.116.28.213.213,0,0,1-.063.149v0a.217.217,0,0,1-.155.054.428.428,0,0,1-.386-.41ZM21.649,7.148c.093-.288.268-.86.268-.86l.3.117a1.045,1.045,0,0,0-.288.206.31.31,0,0,0,.273-.02l-.121.3a.392.392,0,0,0-.2-.176.31.31,0,0,0,.2.391c.184.094.3.109.355.025.058-.105-.063-.251-.218-.185-.016-.159.072-.243.177-.243.083,0,.149.075.172.178a.491.491,0,0,1,.342-.531.511.511,0,0,1-.172.6A.216.216,0,0,1,23,6.988c.058.087.037.207-.1.282a.152.152,0,0,0-.278-.072c-.054.106.028.207.2.3a.312.312,0,0,0,.46-.126.361.361,0,0,0-.282.057l.2-.376a.387.387,0,0,0,.127.221.491.491,0,0,0,.012-.365l.433.25a.483.483,0,0,0-.309.193.393.393,0,0,0,.254,0l-.225.362a.36.36,0,0,0-.091-.273.312.312,0,0,0,.119.461c.167.1.3.121.359.021a.152.152,0,0,0-.2-.206c-.006-.158.087-.236.191-.231.084.006.145.1.161.205a.509.509,0,0,1,.432-.448.491.491,0,0,1-.289.562.2.2,0,0,1,.241.06c.052.09.024.209-.122.275a.151.151,0,0,0-.269-.1c-.048.086.025.183.2.295a.311.311,0,0,0,.44-.02.394.394,0,0,0-.252-.084l.2-.255a.312.312,0,0,0,.119.247,1.011,1.011,0,0,0,.033-.352l.253.2s-.408.437-.611.662Zm2.685,6.768a.276.276,0,1,1-.023-.433.312.312,0,0,1,.023.433Zm.782-1.236a.276.276,0,1,1-.021-.433.31.31,0,0,1,.021.433Z" transform="translate(-2.27 -0.081)" fill="#fff" fill-rule="evenodd"/></g><rect width="2" height="64" fill="#fff"/></g></g></svg>