<svg xmlns="http://www.w3.org/2000/svg" xmlns:xlink="http://www.w3.org/1999/xlink" width="354" height="364" viewBox="0 0 354 364"><defs><clipPath id="b"><rect width="354" height="364"/></clipPath></defs><g id="a" clip-path="url(#b)"><rect width="354" height="364" fill="#512f70"/><g transform="translate(-26.944 -76.951)"><path d="M70.81,322.9v14.247L84.858,323.1Z" transform="translate(-15.454 -109.024)" fill="#684687"/><path d="M30,385.387H44.29V371.14Z" transform="translate(0 -127.291)" fill="#684687"/><path d="M55.97,370.39v16.136H77.244l14.334-15.75Z" transform="translate(-9.834 -127.007)" fill="#684687"/><path d="M108.625,376.33,96.41,388.545h24.455Z" transform="translate(-25.149 -129.257)" fill="#684687"/><path d="M118.17,371.14h35.123v15.44H133.349Z" transform="translate(-33.389 -127.291)" fill="#684687"/><path d="M91.578,308.97v35.247H55.97Z" transform="translate(-9.834 -103.749)" fill="#684687"/><path d="M118.17,308.97v35.247h35.763Z" transform="translate(-33.389 -103.749)" fill="#684687"/><path d="M126.46,310.29h15.688v14.961Z" transform="translate(-36.528 -104.248)" fill="#684687"/><path d="M278.961,58.742l18.087-13.4H261.67Z" transform="translate(-94.561 -3.916)" fill="#684687"/><path d="M227.278,35l-.168,27.537h36.912Z" transform="translate(-74.643 0)" fill="#684687"/><path d="M191.76,84.546,217.116,109.9,242.758,84.26Z" transform="translate(-61.256 -18.654)" fill="#684687"/><path d="M191.76,97.33v36.415h35.962Z" transform="translate(-61.256 -23.603)" fill="#684687"/><path d="M263.445,90.65,237.4,116.7l25.878,25.878Z" transform="translate(-78.539 -21.074)" fill="#684687"/><path d="M284.51,117.36v51.116l25.754-25.753Z" transform="translate(-96.379 -31.189)" fill="#684687"/><path d="M287.48,111.43h51.637l-25.9,25.9Z" transform="translate(-97.504 -28.943)" fill="#684687"/><path d="M359.148,115.867,333.14,141.875l51.035.472S358.272,114.972,359.148,115.867Z" transform="translate(-114.795 -30.615)" fill="#684687"/><path d="M334.23,163.351V185.88l22.56-22.56Z" transform="translate(-115.208 -48.593)" fill="#684687"/><path d="M308.321,161.89v36.185H271.9Z" transform="translate(-91.604 -48.051)" fill="#684687"/><path d="M265.22,165.6v19.342l9.686-9.68Z" transform="translate(-89.074 -49.456)" fill="#684687"/><path d="M240.4,166.34v35.092H205.76Z" transform="translate(-66.558 -49.737)" fill="#684687"/><path d="M199.34,161.89v36.185L235.513,161.9Z" transform="translate(-64.127 -48.051)" fill="#684687"/><path d="M182.889,163.32v18.956h-20.2Z" transform="translate(-50.248 -48.593)" fill="#684687"/><path d="M183.222,217.886,163.57,198.24h19.652Z" transform="translate(-50.581 -61.817)" fill="#684687"/><path d="M205.76,227.992V262.6l34.626-34.62Z" transform="translate(-66.558 -73.079)" fill="#684687"/><path d="M271.9,227.919v34.62l34.719-34.719Z" transform="translate(-91.604 -73.018)" fill="#684687"/><path d="M243.421,233.86v34.7H208.87Z" transform="translate(-67.735 -75.305)" fill="#684687"/><path d="M239.25,293.892v14.085l14.2-14.2Z" transform="translate(-79.24 -97.996)" fill="#684687"/><path d="M286.238,255.84v35.452h-34.1Z" transform="translate(-84.121 -83.629)" fill="#684687"/><path d="M393.59,349.62v13.371h14.141Z" transform="translate(-137.686 -119.142)" fill="#684687"/><path d="M312.4,255.84v35.452h35Z" transform="translate(-106.941 -83.629)" fill="#684687"/><path d="M315.68,253.15h35.148v35.5Z" transform="translate(-108.183 -82.61)" fill="#684687"/><path d="M376.6,289.71v14.408h13.892Z" transform="translate(-131.253 -96.455)" fill="#684687"/><path d="M367.873,316.63v33.452H333.52Z" transform="translate(-114.939 -106.649)" fill="#684687"/><path d="M357.816,317.71,323.47,352.056V317.71Z" transform="translate(-111.133 -107.058)" fill="#684687"/><path d="M296.825,316.63v35.017L262.1,316.922Z" transform="translate(-87.893 -106.649)" fill="#684687"/><path d="M252.97,316.63V350.5h34.738Z" transform="translate(-84.436 -106.649)" fill="#684687"/><path d="M225.757,316.63V350.5H190.28Z" transform="translate(-60.696 -106.649)" fill="#684687"/><path d="M291.19,377.81v29.407h29.9Z" transform="translate(-98.909 -129.817)" fill="#684687"/><path d="M302.32,380.04h29.425v29.432Z" transform="translate(-103.124 -130.662)" fill="#684687"/><path d="M355.47,377.81v29.407h30.14Z" transform="translate(-123.251 -129.817)" fill="#684687"/><path d="M366.88,379.3h29.506v28.991Z" transform="translate(-127.572 -130.381)" fill="#684687"/><path d="M419.46,377.81v29.916l24.039.056" transform="translate(-147.483 -129.817)" fill="#684687"/><path d="M295.64,429.75h30.432v30.587Z" transform="translate(-100.594 -149.486)" fill="#684687"/><path d="M235.54,486.15h29.966v30.407Z" transform="translate(-77.835 -170.844)" fill="#684687"/><path d="M288.38,485.707v29.637l30.364-30.364Z" transform="translate(-97.845 -170.401)" fill="#684687"/><path d="M326.072,487.67v29.463H295.64Z" transform="translate(-100.594 -171.42)" fill="#684687"/><path d="M359.46,431.24H388.5V460.9Z" transform="translate(-124.762 -150.051)" fill="#684687"/><path d="M412.42,431.24v28.245h19.826v-9.133Z" transform="translate(-144.817 -150.051)" fill="#684687"/><path d="M420.7,429.75h14.682V444.8Z" transform="translate(-147.953 -149.486)" fill="#684687"/><path d="M351.3,433.46v62.374l63.157-.13" transform="translate(-121.672 -150.891)" fill="#684687"/><path d="M412.42,484.98h19.826v19.944Z" transform="translate(-144.817 -170.401)" fill="#684687"/><path d="M252.131,541.8v49.357H202.65Z" transform="translate(-65.38 -191.918)" fill="#684687"/><path d="M288.22,540.18v30.426l30.662-30.656Z" transform="translate(-97.784 -191.218)" fill="#684687"/><path d="M296.39,571.766h29.966V541.8Z" transform="translate(-100.878 -191.918)" fill="#684687"/><path d="M288.22,598.512v29.966l30.668-30.668Z" transform="translate(-97.784 -213.128)" fill="#684687"/><path d="M436.86,539.2v43.039l31.024-.116" transform="translate(-154.072 -191.623)" fill="#684687"/><path d="M360.94,538.09h42.535v42.417Z" transform="translate(-125.322 -190.513)" fill="#684687"/><path d="M350.09,539.95v41.883h42.7Z" transform="translate(-121.213 -191.218)" fill="#684687"/><path d="M438.85,614.52,459.6,640.336V614.52Z" transform="translate(-154.826 -219.456)" fill="#684687"/><path d="M191.39,704.662l29.736-40.8v40.8Z" transform="translate(-61.116 -238.14)" fill="#684687"/><path d="M276.391,659.861l-31.581-.081.311,33.2" transform="translate(-81.345 -236.595)" fill="#684687"/><path d="M327.106,612.29,291.07,648.326h34.868Z" transform="translate(-98.863 -218.611)" fill="#684687"/><path d="M354.26,613.03v35.452h35.62Z" transform="translate(-122.793 -218.892)" fill="#684687"/><path d="M406.346,656.367,363.96,613.03h42.386" transform="translate(-126.466 -218.892)" fill="#684687"/><path d="M465.591,660.495H439.316l-.466-36.565" transform="translate(-154.826 -223.019)" fill="#684687"/><path d="M194.516,731.99v15.993H174.69Z" transform="translate(-54.792 -263.94)" fill="#684687"/><path d="M210.31,733.377v10.3l10.426-10.432Z" transform="translate(-68.281 -264.413)" fill="#684687"/><path d="M291.057,675.4H365.3L338.476,702.22S289.877,674.218,291.057,675.4Z" transform="translate(-98.851 -242.496)" fill="#684687"/><path d="M271.175,679.07v31.352H243.21Z" transform="translate(-80.74 -243.9)" fill="#684687"/><path d="M292.68,682.63v16.695h25.213Z" transform="translate(-99.473 -245.248)" fill="#684687"/><path d="M409.465,676.85l-12.9,12.911H421.6Z" transform="translate(-138.811 -243.06)" fill="#684687"/><path d="M525.007,620.46H477.65V649.8Z" transform="translate(-168.73 -225.396)" fill="#684687"/><path d="M494.5,503.21h59.344L494.5,574.835Z" transform="translate(-175.9 -184.22)" fill="#684687"/><path d="M455.55,524.339l20.056,34.595V492.08Z" transform="translate(-161.15 -173.09)" fill="#684687"/><path d="M450.73,445.34v41.031l21.448-21.454Z" transform="translate(-159.324 -155.39)" fill="#684687"/><path d="M478.92,672.4l7.52,9.527,9.2-9.2Z" transform="translate(-170 -244.452)" fill="#684687"/><path d="M500.43,650.621l33.2-21.721-.459,21.951Z" transform="translate(-178.145 -227.666)" fill="#684687"/></g></g></svg>