<svg xmlns="http://www.w3.org/2000/svg" xmlns:xlink="http://www.w3.org/1999/xlink" width="354" height="364" viewBox="0 0 354 364"><defs><clipPath id="b"><rect width="354" height="364"/></clipPath></defs><g id="a" clip-path="url(#b)"><rect width="354" height="364" fill="#77236e"/><g transform="translate(-27.231 -78.353)"><path d="M70.81,322.9v14.3l14.1-14.1Z" transform="translate(-15.36 -108.362)" fill="#651a5d"/><path d="M30,385.439H44.343v-14.3Z" transform="translate(0 -126.519)" fill="#651a5d"/><path d="M55.97,370.39v16.2H77.323l14.387-15.809Z" transform="translate(-9.775 -126.236)" fill="#651a5d"/><path d="M108.67,376.33,96.41,388.59h24.545Z" transform="translate(-24.996 -128.472)" fill="#651a5d"/><path d="M118.17,371.14h35.253v15.5H133.4Z" transform="translate(-33.186 -126.519)" fill="#651a5d"/><path d="M91.709,308.97v35.378H55.97Z" transform="translate(-9.775 -103.119)" fill="#651a5d"/><path d="M118.17,308.97v35.378h35.9Z" transform="translate(-33.186 -103.119)" fill="#651a5d"/><path d="M126.46,310.29h15.746v15.017Z" transform="translate(-36.306 -103.615)" fill="#651a5d"/><path d="M279.025,58.791,297.178,45.34H261.67Z" transform="translate(-94.054 -3.892)" fill="#651a5d"/><path d="M227.278,35l-.168,27.639h37.049Z" transform="translate(-74.19 0)" fill="#651a5d"/><path d="M191.76,84.547,217.21,110,242.946,84.26Z" transform="translate(-60.884 -18.541)" fill="#651a5d"/><path d="M191.76,97.33v36.55h36.095Z" transform="translate(-60.884 -23.46)" fill="#651a5d"/><path d="M263.542,90.65,237.4,116.8l25.973,25.974Z" transform="translate(-78.063 -20.946)" fill="#651a5d"/><path d="M284.51,117.36v51.3l25.849-25.849Z" transform="translate(-95.794 -30.999)" fill="#651a5d"/><path d="M287.48,111.43h51.829l-26,25.992Z" transform="translate(-96.912 -28.767)" fill="#651a5d"/><path d="M359.244,115.867l-26.1,26.1,51.224.474S358.365,114.969,359.244,115.867Z" transform="translate(-114.098 -30.429)" fill="#651a5d"/><path d="M334.23,163.351v22.612l22.643-22.643Z" transform="translate(-114.508 -48.298)" fill="#651a5d"/><path d="M308.456,161.89v36.319H271.9Z" transform="translate(-91.048 -47.76)" fill="#651a5d"/><path d="M265.22,165.6v19.413l9.722-9.716Z" transform="translate(-88.534 -49.156)" fill="#651a5d"/><path d="M240.526,166.34v35.222H205.76Z" transform="translate(-66.154 -49.435)" fill="#651a5d"/><path d="M199.34,161.89v36.319L235.647,161.9Z" transform="translate(-63.737 -47.76)" fill="#651a5d"/><path d="M182.964,163.32v19.026H162.69Z" transform="translate(-49.943 -48.298)" fill="#651a5d"/><path d="M183.295,217.959,163.57,198.24h19.725Z" transform="translate(-50.274 -61.441)" fill="#651a5d"/><path d="M205.76,227.992v34.735l34.754-34.748Z" transform="translate(-66.154 -72.635)" fill="#651a5d"/><path d="M271.9,227.92v34.748l34.848-34.848Z" transform="translate(-91.048 -72.575)" fill="#651a5d"/><path d="M243.549,233.86v34.829H208.87Z" transform="translate(-67.324 -74.848)" fill="#651a5d"/><path d="M239.25,293.892V308.03l14.25-14.25Z" transform="translate(-78.759 -97.401)" fill="#651a5d"/><path d="M286.364,255.84v35.583H252.14Z" transform="translate(-83.61 -83.121)" fill="#651a5d"/><path d="M393.59,349.62v13.42h14.194Z" transform="translate(-136.85 -118.419)" fill="#651a5d"/><path d="M312.4,255.84v35.583h35.128Z" transform="translate(-106.291 -83.121)" fill="#651a5d"/><path d="M315.68,253.15h35.278v35.633Z" transform="translate(-107.526 -82.109)" fill="#651a5d"/><path d="M376.6,289.71v14.462h13.944Z" transform="translate(-130.456 -95.869)" fill="#651a5d"/><path d="M368,316.63v33.575H333.52Z" transform="translate(-114.241 -106.002)" fill="#651a5d"/><path d="M357.943,317.71,323.47,352.183V317.71Z" transform="translate(-110.458 -106.408)" fill="#651a5d"/><path d="M296.954,316.63v35.147L262.1,316.923Z" transform="translate(-87.359 -106.002)" fill="#651a5d"/><path d="M252.97,316.63v33.993h34.866Z" transform="translate(-83.923 -106.002)" fill="#651a5d"/><path d="M225.888,316.63v33.993H190.28Z" transform="translate(-60.327 -106.002)" fill="#651a5d"/><path d="M291.19,377.81v29.516H321.2Z" transform="translate(-98.308 -129.029)" fill="#651a5d"/><path d="M302.32,380.04h29.534v29.541Z" transform="translate(-102.498 -129.868)" fill="#651a5d"/><path d="M355.47,377.81v29.516h30.251Z" transform="translate(-122.503 -129.029)" fill="#651a5d"/><path d="M366.88,379.3H396.5v29.1Z" transform="translate(-126.797 -129.59)" fill="#651a5d"/><path d="M419.46,377.81v30.027l24.128.056" transform="translate(-146.587 -129.029)" fill="#651a5d"/><path d="M295.64,429.75h30.545v30.7Z" transform="translate(-99.983 -148.579)" fill="#651a5d"/><path d="M235.54,486.15h30.077v30.52Z" transform="translate(-77.363 -169.807)" fill="#651a5d"/><path d="M288.38,485.71v29.746l30.476-30.476Z" transform="translate(-97.251 -169.366)" fill="#651a5d"/><path d="M326.185,487.67v29.572H295.64Z" transform="translate(-99.983 -170.379)" fill="#651a5d"/><path d="M359.46,431.24h29.148v29.771Z" transform="translate(-124.004 -149.139)" fill="#651a5d"/><path d="M412.42,431.24v28.349h19.9v-9.167Z" transform="translate(-143.938 -149.139)" fill="#651a5d"/><path d="M420.7,429.75h14.736v15.1Z" transform="translate(-147.054 -148.579)" fill="#651a5d"/><path d="M351.3,433.46v62.6l63.39-.131" transform="translate(-120.933 -149.975)" fill="#651a5d"/><path d="M412.42,484.98h19.9V505Z" transform="translate(-143.938 -169.366)" fill="#651a5d"/><path d="M252.315,541.8v49.54H202.65Z" transform="translate(-64.983 -190.753)" fill="#651a5d"/><path d="M288.22,540.181v30.539L319,539.95Z" transform="translate(-97.191 -190.057)" fill="#651a5d"/><path d="M296.39,571.877h30.077V541.8Z" transform="translate(-100.266 -190.753)" fill="#651a5d"/><path d="M288.22,598.515v30.077L319,597.81Z" transform="translate(-97.191 -211.834)" fill="#651a5d"/><path d="M436.86,539.2v43.2L468,582.281" transform="translate(-153.137 -190.467)" fill="#651a5d"/><path d="M360.94,538.09h42.692v42.574Z" transform="translate(-124.561 -189.356)" fill="#651a5d"/><path d="M350.09,539.95v42.038h42.861Z" transform="translate(-120.478 -190.057)" fill="#651a5d"/><path d="M438.85,614.52l20.829,25.911V614.52Z" transform="translate(-153.886 -218.123)" fill="#651a5d"/><path d="M191.39,704.813l29.846-40.953v40.953Z" transform="translate(-60.745 -236.694)" fill="#651a5d"/><path d="M276.508,659.861l-31.7-.081.312,33.32" transform="translate(-80.852 -235.159)" fill="#651a5d"/><path d="M327.24,612.29l-36.17,36.17h35Z" transform="translate(-98.263 -217.284)" fill="#651a5d"/><path d="M354.26,613.03v35.583h35.752Z" transform="translate(-122.047 -217.563)" fill="#651a5d"/><path d="M406.5,656.527l-42.543-43.5H406.5" transform="translate(-125.698 -217.563)" fill="#651a5d"/><path d="M465.69,660.63H439.318l-.468-36.7" transform="translate(-153.886 -221.665)" fill="#651a5d"/><path d="M194.59,731.99v16.052h-19.9Z" transform="translate(-54.459 -262.338)" fill="#651a5d"/><path d="M210.31,733.377v10.333l10.464-10.471Z" transform="translate(-67.866 -262.808)" fill="#651a5d"/><path d="M291.057,675.4h74.516l-26.921,26.921S289.872,674.213,291.057,675.4Z" transform="translate(-98.25 -241.023)" fill="#651a5d"/><path d="M271.279,679.07v31.468H243.21Z" transform="translate(-80.249 -242.419)" fill="#651a5d"/><path d="M292.68,682.63v16.756h25.306Z" transform="translate(-98.869 -243.759)" fill="#651a5d"/><path d="M409.512,676.85,396.56,689.809h25.132Z" transform="translate(-137.968 -241.584)" fill="#651a5d"/><path d="M525.182,620.46H477.65v29.453Z" transform="translate(-167.697 -224.064)" fill="#651a5d"/><path d="M494.5,503.21h59.563L494.5,575.1Z" transform="translate(-174.832 -183.169)" fill="#651a5d"/><path d="M455.55,524.458l20.13,34.723v-67.1Z" transform="translate(-160.171 -172.039)" fill="#651a5d"/><path d="M450.73,445.34v41.183l21.527-21.533Z" transform="translate(-158.357 -154.447)" fill="#651a5d"/><path d="M478.92,672.4l7.548,9.562,9.236-9.236Z" transform="translate(-168.967 -242.997)" fill="#651a5d"/><path d="M500.43,650.7l33.326-21.8-.461,22.032Z" transform="translate(-177.064 -226.311)" fill="#651a5d"/></g></g></svg>